<?xml version="1.0" encoding="UTF-8" standalone="no"?><!DOCTYPE svg PUBLIC "-//W3C//DTD SVG 1.1//EN" "http://www.w3.org/Graphics/SVG/1.1/DTD/svg11.dtd"><svg width="100%" height="100%" viewBox="0 0 296 487" version="1.1" xmlns="http://www.w3.org/2000/svg" xmlns:xlink="http://www.w3.org/1999/xlink" xml:space="preserve" xmlns:serif="http://www.serif.com/" style="fill-rule:evenodd;clip-rule:evenodd;stroke-linejoin:round;stroke-miterlimit:2;"><g><path d="M182.678,156.814c1.774,1.296 5.088,0.597 6.593,0.104c1.281,-1.391 1.911,-2.809 1.873,-4.222c-0.044,-1.577 -0.874,-2.906 -1.48,-3.673c-0.044,0.01 -0.091,0.013 -0.134,0.025c-2.961,0.739 -5.974,1.744 -8.37,3.483c0.001,2.107 0.508,3.545 1.518,4.283" style="fill:#231f20;fill-rule:nonzero;"/><path d="M254.004,123.987c5.837,5.426 11.899,12.315 16.758,20.687c9.868,-10.611 14.098,-19.946 12.549,-27.747c-1.098,-5.525 -4.928,-9.055 -7.527,-10.878c-0.792,3.599 -2.222,7.024 -4.592,9.929c-3.832,4.695 -9.603,7.371 -17.188,8.009" style="fill:#231f20;fill-rule:nonzero;"/><path d="M255.18,105.898c3.509,-3.09 5.21,-6.073 4.959,-8.76c-0.421,-4.491 -6.017,-7.728 -8.041,-8.757c0.074,0.523 0.159,1.034 0.214,1.577c0.007,0.073 0,0.146 0,0.218c1.963,2.205 3.407,4.684 3.944,7.455c0.527,2.718 0.156,5.478 -1.076,8.267" style="fill:#231f20;fill-rule:nonzero;"/><path d="M169.544,102.798c-0.063,-0.078 -0.11,-0.162 -0.16,-0.245c-9.629,6.222 -19.27,9.751 -20.799,10.292c-0.258,0.105 -0.529,0.18 -0.813,0.18c-0.011,0 -0.022,-0.006 -0.034,-0.006c-0.012,0 -0.024,0.006 -0.035,0.006c-0.284,0 -0.554,-0.075 -0.813,-0.18c-1.492,-0.528 -10.723,-3.909 -20.124,-9.864c-1.282,1.512 -10.041,11.132 -26.359,13.279c-0.117,5.379 -1.915,19.394 -16.699,26.306c-0.152,0.464 -0.455,0.879 -0.893,1.154c-0.999,1.238 -3.016,8.848 -2.604,18.818c0.283,6.814 1.663,12.438 3.96,16.353c-0.2,-3.514 -0.325,-6.316 -0.386,-7.773c-0.051,-1.195 0.878,-2.203 2.072,-2.253c1.178,-0.042 2.204,0.879 2.252,2.073c0.6,14.375 2.405,38.546 4.695,42.211c2.512,4.016 5.203,13.281 6.881,19.726c0.785,-3.765 1.627,-6.181 1.66,-6.27c0.406,-1.126 1.65,-1.703 2.769,-1.301c1.124,0.405 1.708,1.644 1.303,2.769c-0.11,0.307 -10.753,30.569 10.421,43.684c0.417,0.126 1.383,0.415 2.751,0.415l0.01,0c0.178,0 0.348,0.242 0.513,0.287c5.664,0.839 17.174,0.915 26.897,-10.052c0.029,-0.033 0.064,-0.006 0.094,-0.036c0.032,-0.031 0.056,-0.04 0.09,-0.071c0.022,-0.02 0.049,-0.021 0.073,-0.04c0.058,-0.048 0.118,-0.083 0.18,-0.123c0.059,-0.039 0.117,-0.074 0.18,-0.106c0.063,-0.033 0.127,-0.059 0.191,-0.086c0.067,-0.026 0.132,-0.051 0.201,-0.07c0.065,-0.02 0.131,-0.034 0.197,-0.047c0.07,-0.013 0.138,-0.025 0.208,-0.032c0.07,-0.007 0.139,-0.007 0.209,-0.007c0.067,0 0.133,0.001 0.201,0.007c0.072,0.007 0.143,0.02 0.215,0.034c0.065,0.012 0.128,0.025 0.19,0.044c0.071,0.021 0.139,0.047 0.208,0.076c0.062,0.025 0.123,0.051 0.183,0.082c0.064,0.033 0.125,0.072 0.186,0.113c0.061,0.04 0.119,0.08 0.177,0.127c0.024,0.02 0.05,0.032 0.073,0.053c0.034,0.03 0.058,0.066 0.09,0.097c0.03,0.031 0.064,0.054 0.094,0.087c12.466,14.06 28.196,10.032 30.177,9.449c21.169,-13.116 10.525,-43.578 10.415,-43.885c-0.405,-1.124 0.179,-2.364 1.303,-2.769c1.124,-0.405 2.363,0.177 2.769,1.301c0.032,0.089 0.876,2.505 1.66,6.27c1.68,-6.447 4.375,-15.718 6.881,-19.727c2.291,-3.664 4.094,-27.835 4.694,-42.21c0.05,-1.194 1.094,-2.117 2.253,-2.073c1.194,0.05 2.121,1.058 2.072,2.253c-0.061,1.457 -0.186,4.258 -0.386,7.772c2.297,-3.916 3.678,-9.54 3.96,-16.356c0.411,-9.969 -1.605,-17.577 -2.606,-18.814c-0.631,-0.397 -0.987,-1.082 -0.998,-1.794c-13.586,-7.106 -15.272,-20.449 -15.386,-25.665c-17.235,-2.268 -26.041,-12.88 -26.513,-13.463m-50.743,113.597c0.487,1.089 0.002,2.37 -1.085,2.86c-0.29,0.131 -0.593,0.192 -0.891,0.192c-0.822,0 -1.606,-0.47 -1.968,-1.266c-0.207,-0.456 -4.99,-11.266 1.486,-22.226c5.124,-8.67 3.676,-22.998 2.718,-32.48c-0.089,-0.886 -0.175,-1.732 -0.25,-2.531c-0.15,-1.573 -0.536,-2.926 -1.091,-4.11c-0.546,1.448 -1.407,2.613 -2.587,3.476c-0.274,0.2 -0.558,0.369 -0.847,0.525c0.386,0.113 0.766,0.232 1.163,0.33c1.16,0.286 1.87,1.458 1.584,2.619c-0.243,0.988 -1.127,1.648 -2.099,1.648c-0.172,0 -0.347,-0.02 -0.52,-0.063c-11.787,-2.9 -18.812,-11.591 -19.105,-11.959c-0.38,-0.477 -0.523,-1.063 -0.451,-1.623c-0.885,0.236 -1.857,-0.1 -2.377,-0.911c-0.647,-1.006 -0.356,-2.345 0.65,-2.991c0.264,-0.171 5.92,-3.742 11.665,-3.335c0.101,0.001 0.202,0.01 0.302,0.026c0.563,0.053 1.124,0.132 1.681,0.272c2.382,0.596 7.023,1.766 10.768,4.884c0.076,0.058 0.146,0.122 0.214,0.191c2.693,2.319 4.889,5.667 5.358,10.611c0.076,0.791 0.161,1.629 0.249,2.506c1.015,10.045 2.549,25.224 -3.298,35.119c-5.302,8.972 -1.436,17.862 -1.269,18.236m52.167,18.278c-0.68,0.905 -1.831,1.308 -3.92,2.04c-6.03,2.109 -17.254,6.036 -17.254,20.567c0,1.195 -0.97,2.165 -2.165,2.165c-1.195,0 -2.165,-0.97 -2.165,-2.165c0,-14.531 -11.224,-18.458 -17.254,-20.567c-2.089,-0.732 -3.24,-1.135 -3.92,-2.04c-1.285,-1.713 -0.965,-4.566 0.759,-6.782c1.607,-2.064 4.737,-3.684 8.701,-2.032c4.992,2.082 13.685,1.681 13.772,1.677c0.036,-0.002 0.07,0.005 0.105,0.005c0.037,0 0.072,-0.007 0.109,-0.005c0.087,0.003 8.778,0.404 13.772,-1.677c3.964,-1.652 7.094,-0.032 8.7,2.032c1.725,2.216 2.044,5.069 0.76,6.782m1.17,-74.139c0.472,-4.944 2.667,-8.293 5.359,-10.612c0.068,-0.068 0.138,-0.132 0.214,-0.19c3.745,-3.118 8.385,-4.288 10.769,-4.884c0.553,-0.138 1.111,-0.217 1.67,-0.27c0.106,-0.017 0.212,-0.027 0.32,-0.028c5.742,-0.403 11.393,3.164 11.657,3.335c1.005,0.646 1.296,1.985 0.65,2.991c-0.521,0.811 -1.493,1.149 -2.378,0.911c0.072,0.559 -0.07,1.146 -0.45,1.623c-0.293,0.368 -7.318,9.059 -19.105,11.959c-0.174,0.043 -0.348,0.063 -0.52,0.063c-0.973,0 -1.857,-0.66 -2.099,-1.648c-0.286,-1.161 0.424,-2.333 1.584,-2.619c0.397,-0.098 0.777,-0.217 1.162,-0.33c-0.288,-0.156 -0.572,-0.325 -0.846,-0.525c-1.181,-0.863 -2.04,-2.028 -2.587,-3.475c-0.555,1.184 -0.941,2.536 -1.091,4.109c-0.075,0.799 -0.161,1.644 -0.25,2.528c-0.957,9.482 -2.405,23.813 2.718,32.484c6.476,10.959 1.692,21.769 1.486,22.225c-0.363,0.797 -1.149,1.269 -1.972,1.269c-0.3,0 -0.604,-0.063 -0.895,-0.195c-1.088,-0.495 -1.569,-1.778 -1.074,-2.866c0.164,-0.368 4.03,-9.258 -1.272,-18.23c-5.847,-9.896 -4.312,-25.076 -3.298,-35.122c0.088,-0.876 0.173,-1.712 0.248,-2.503" style="fill:#231f20;fill-rule:nonzero;"/><path d="M196.564,150.71c0.174,-0.216 0.385,-0.387 0.612,-0.517c-0.71,-0.306 -1.521,-0.611 -2.391,-0.857c0.313,0.791 0.549,1.67 0.642,2.625c0.727,-0.748 1.122,-1.232 1.137,-1.251" style="fill:#231f20;fill-rule:nonzero;"/><path d="M24.067,115.978c-2.367,-2.901 -3.797,-6.322 -4.589,-9.916c-2.612,1.841 -6.463,5.397 -7.54,10.909c-1.525,7.792 2.709,17.112 12.558,27.703c4.859,-8.372 10.92,-15.26 16.758,-20.687c-7.586,-0.637 -13.356,-3.313 -17.187,-8.009" style="fill:#231f20;fill-rule:nonzero;"/><path d="M21.643,78.582c1.713,-6.423 10.877,-8.446 19.406,-8.895c-8.017,-1.947 -17.914,-3.16 -25.502,-0.25c-8.442,3.238 -13.21,6.814 -14.171,10.626c-1.211,4.804 3.533,10.312 8.118,15.639c2.329,2.704 4.551,5.292 6.084,7.86c1.24,-1.002 2.368,-1.726 3.212,-2.214c-0.743,-9.257 1.762,-18.676 2.853,-22.766" style="fill:#231f20;fill-rule:nonzero;"/><path d="M44.518,112.437c-0.407,0.381 -0.936,0.587 -1.477,0.587c-0.413,0 -0.829,-0.117 -1.198,-0.363c-7.823,-5.216 -11.536,-10.573 -11.034,-15.927c0.757,-8.092 10.955,-12.507 11.389,-12.691c0.611,-0.261 1.271,-0.209 1.819,0.07c1.164,-4.238 3.116,-7.605 5.826,-10.077c-9.68,-0.436 -22.625,0.441 -24.017,5.661c-4.212,15.799 -3.675,27.085 1.595,33.544c3.725,4.567 9.974,6.77 18.605,6.562c1.193,-0.982 2.352,-1.892 3.474,-2.741c-1.916,-1.547 -3.578,-3.088 -4.982,-4.625" style="fill:#231f20;fill-rule:nonzero;"/><path d="M35.119,97.148c-0.248,2.685 1.454,5.665 4.962,8.753c-1.233,-2.791 -1.605,-5.552 -1.078,-8.269c0.536,-2.772 1.98,-5.252 3.945,-7.456c0,-0.073 -0.007,-0.144 0,-0.218c0.054,-0.547 0.139,-1.062 0.214,-1.589c-2.643,1.311 -7.66,4.618 -8.043,8.779" style="fill:#231f20;fill-rule:nonzero;"/><path d="M253.06,84.042c0.434,0.185 10.631,4.6 11.389,12.692c0.501,5.353 -3.211,10.711 -11.034,15.926c-0.369,0.246 -0.786,0.363 -1.198,0.363c-0.542,0 -1.07,-0.205 -1.477,-0.585c-1.404,1.536 -3.066,3.078 -4.981,4.624c1.122,0.849 2.281,1.758 3.474,2.741c8.631,0.205 14.879,-1.995 18.604,-6.562c5.27,-6.459 5.807,-17.745 1.595,-33.544c-1.392,-5.22 -14.337,-6.096 -24.017,-5.661c2.71,2.471 4.662,5.839 5.825,10.076c0.55,-0.278 1.208,-0.329 1.82,-0.07" style="fill:#231f20;fill-rule:nonzero;"/><path d="M270.665,178.363c-8.466,-6.272 -17.169,-9.512 -19.035,-10.037c-1.152,-0.323 -1.823,-1.518 -1.499,-2.67c0.322,-1.15 1.522,-1.82 2.668,-1.498c5.459,1.534 21.522,8.396 31.435,21.191c-0.465,-4.915 -3.103,-8.997 -6.499,-12.46l-0.009,0c-1.064,0 -1.992,-0.633 -2.142,-1.716c-0.021,-0.155 -0.054,-0.228 -0.077,-0.381c-0.329,-0.336 -0.66,-0.633 -0.996,-0.973c-3.32,-3.359 -6.754,-6.814 -9.042,-11.166c-5.68,-10.809 -23.7,-15.577 -23.88,-15.623c-1.158,-0.3 -1.854,-1.476 -1.554,-2.633c0.299,-1.156 1.479,-1.852 2.635,-1.551c0.816,0.21 20.055,5.296 26.632,17.811c1.163,2.212 2.747,4.238 4.477,6.166c-4.914,-17.397 -16.511,-30.39 -26.37,-38.766c-0.051,-0.002 -0.097,-0.001 -0.148,-0.004c-1.015,-0.059 -1.819,-0.81 -1.997,-1.765c-7.71,-6.211 -13.874,-9.42 -14.028,-9.499c-1.065,-0.542 -1.489,-1.845 -0.947,-2.911c0.542,-1.064 1.842,-1.49 2.911,-0.948c0.476,0.243 4,2.073 8.925,5.492c7.486,-5.777 10.814,-11.145 9.881,-15.968c-1.818,-9.39 -19.519,-15.861 -26.186,-17.562c-1.158,-0.296 -1.858,-1.474 -1.561,-2.633c0.294,-1.157 1.466,-1.854 2.632,-1.562c0.711,0.182 11.893,3.101 20.303,9.01c-1.03,-4.041 -2.835,-7.102 -5.405,-9.113c-4.282,-3.352 -9.211,-2.688 -9.263,-2.68c-1.172,0.167 -2.281,-0.652 -2.45,-1.835c-0.17,-1.184 0.651,-2.28 1.834,-2.451c0.18,-0.026 3.086,-0.408 6.681,0.606c3.031,-1.299 23.895,-9.823 39.663,-5.786c-0.455,-5.583 -2.833,-12.05 -7.669,-15.918c-4.047,-3.237 -9.11,-4.067 -15.049,-2.469c-18.293,4.923 -35.589,0.198 -36.316,-0.005c-1.15,-0.323 -1.822,-1.516 -1.5,-2.667c0.321,-1.151 1.518,-1.824 2.666,-1.503c0.168,0.047 16.912,4.603 34.024,-0.005c0.875,-0.235 1.735,-0.423 2.588,-0.568c-4.156,-1.335 -6.79,-1.384 -6.839,-1.384c-0.706,-0.003 -1.372,-0.349 -1.774,-0.93c-0.404,-0.58 -0.503,-1.32 -0.259,-1.983c1.85,-5.022 1.778,-8.511 -0.214,-10.37c-1.155,-1.079 -2.938,-1.705 -5.163,-1.979c-0.132,0.039 -0.27,0.068 -0.413,0.081c-0.403,0.036 -0.789,-0.048 -1.132,-0.212c-11.471,-0.562 -32.35,6.552 -45.488,12.446c-1.09,0.485 -2.373,0.001 -2.862,-1.089c-0.489,-1.091 -0.001,-2.371 1.089,-2.861c3.159,-1.418 23.172,-10.186 39.182,-12.337c-4.995,-0.398 -12.696,-2.1 -24.654,-7.139c-12.297,-5.181 -22.35,-5.959 -29.884,-2.318c-8.184,3.958 -10.462,11.856 -10.484,11.936c-0.266,0.957 -1.136,1.584 -2.084,1.584c-0.192,0 -0.387,-0.025 -0.581,-0.079c-1.152,-0.32 -1.826,-1.513 -1.506,-2.665c0.112,-0.401 2.844,-9.873 12.771,-14.673c2.133,-1.032 4.422,-1.762 6.858,-2.198c-0.381,-0.182 -0.763,-0.363 -1.142,-0.544c-9.977,-4.774 -16.31,-7.314 -22.765,0.281c-9.037,10.632 -9.557,15.764 -9.557,16.944l0,0.029c0,0.156 -0.102,0.237 -0.1,0.243c-0.006,-0.03 -0.067,-0.048 -0.072,-0.067c-0.018,0.593 -0.134,0.984 -0.196,1.19l-2.011,-0.603l-2.005,0.603c-0.061,-0.205 -0.153,-0.596 -0.171,-1.189c-0.005,0.019 -0.041,0.036 -0.045,0.067c0.001,-0.006 -0.018,-0.088 -0.018,-0.241l0,-0.037c0,-1.188 -0.614,-6.319 -9.64,-16.939c-6.457,-7.597 -12.887,-5.054 -22.865,-0.281c-0.395,0.189 -0.783,0.378 -1.18,0.566c2.396,0.438 4.655,1.159 6.757,2.176c9.928,4.8 12.662,14.272 12.772,14.673c0.321,1.152 -0.352,2.345 -1.505,2.665c-0.194,0.054 -0.387,0.079 -0.579,0.079c-0.946,0 -1.814,-0.623 -2.082,-1.578c-0.023,-0.08 -2.384,-8.059 -10.55,-11.973c-4.598,-2.204 -10.135,-2.758 -16.537,-1.684c-0.416,0.083 -0.832,0.168 -1.25,0.231c-3.733,0.735 -7.743,1.995 -12.033,3.802c-11.967,5.042 -19.67,6.741 -24.663,7.138c16.012,2.149 36.031,10.92 39.191,12.338c1.09,0.49 1.578,1.77 1.089,2.861c-0.49,1.09 -1.77,1.576 -2.861,1.089c-13.133,-5.891 -33.997,-13.002 -45.471,-12.447c-0.344,0.165 -0.735,0.25 -1.15,0.213c-0.142,-0.013 -0.281,-0.042 -0.414,-0.082c-2.224,0.275 -4.007,0.901 -5.161,1.98c-1.992,1.859 -2.063,5.348 -0.214,10.37c0.245,0.666 0.148,1.411 -0.259,1.991c-0.408,0.582 -1.11,0.941 -1.784,0.922c-0.043,0 -2.676,0.049 -6.829,1.384c0.851,0.145 1.713,0.333 2.586,0.568c17.113,4.607 33.857,0.052 34.025,0.005c1.145,-0.318 2.344,0.352 2.666,1.503c0.321,1.151 -0.351,2.344 -1.5,2.667c-0.729,0.203 -18.024,4.93 -36.316,0.005c-5.941,-1.6 -11.002,-0.768 -15.048,2.469c-4.836,3.867 -7.213,10.334 -7.67,15.918c15.764,-4.035 36.633,4.489 39.664,5.786c3.594,-1.014 6.501,-0.632 6.681,-0.606c1.183,0.171 2.004,1.267 1.834,2.451c-0.169,1.179 -1.263,2.001 -2.44,1.835c-0.049,-0.006 -5.085,-0.634 -9.323,2.719c-2.542,2.012 -4.33,5.058 -5.354,9.073c8.41,-5.908 19.591,-8.827 20.301,-9.009c1.165,-0.293 2.336,0.404 2.632,1.562c0.296,1.158 -0.403,2.336 -1.561,2.633c-6.669,1.706 -24.374,8.189 -26.186,17.566c-0.931,4.821 2.397,10.188 9.882,15.964c4.925,-3.419 8.449,-5.249 8.925,-5.492c1.065,-0.54 2.367,-0.118 2.91,0.947c0.542,1.065 0.119,2.368 -0.945,2.912c-0.154,0.078 -6.322,3.298 -14.035,9.517c-0.185,0.947 -0.984,1.688 -1.992,1.747c-0.043,0.003 -0.082,0.002 -0.126,0.004c-9.863,8.381 -21.472,21.38 -26.39,38.764c1.73,-1.928 3.313,-3.952 4.475,-6.163c6.577,-12.515 25.817,-17.6 26.633,-17.81c1.158,-0.299 2.337,0.398 2.635,1.554c0.299,1.157 -0.396,2.337 -1.554,2.637c-0.18,0.047 -18.202,4.824 -23.881,15.632c-2.288,4.353 -5.722,7.827 -9.042,11.186c-0.336,0.34 -0.668,0.675 -0.997,1.011c-0.022,0.154 -0.055,0.15 -0.076,0.305c-0.15,1.083 -1.078,1.716 -2.142,1.716l-0.009,0c-3.396,3.463 -6.034,7.543 -6.5,12.459c9.915,-12.794 25.977,-19.732 31.435,-21.266c1.148,-0.321 2.345,0.386 2.669,1.536c0.323,1.151 -0.348,2.366 -1.498,2.689c-1.868,0.524 -10.57,3.775 -19.036,10.047c-5.547,4.108 -9.773,8.58 -12.679,13.363c0.637,-0.864 1.056,-1.393 1.164,-1.529c0.745,-0.935 2.104,-1.088 3.041,-0.343c0.935,0.745 1.089,2.107 0.345,3.042c-0.196,0.247 -19.549,24.847 -16.029,44.96c1.158,6.614 4.743,12.082 10.651,16.293c15.189,-29.765 17.675,-67.914 17.702,-68.353c0.073,-1.193 1.076,-2.092 2.292,-2.031c1.193,0.073 2.101,1.098 2.03,2.291c-0.121,1.997 -3.032,46.77 -22.648,78.007c6.017,-2.29 15.207,-6.724 20.479,-13.794c6.731,-9.224 12.285,-15.068 12.597,-15.394c0.826,-0.865 2.196,-0.894 3.06,-0.068c0.864,0.827 0.894,2.196 0.068,3.061c-0.391,0.409 -38.054,40.25 -35.351,75.98c1.182,-0.319 2.385,-0.51 3.535,-0.688c4.48,-0.695 7.185,-1.113 7.065,-7.792c-0.358,-20.055 23.48,-42.084 24.495,-43.012c0.883,-0.806 2.251,-0.745 3.058,0.137c0.807,0.882 0.746,2.251 -0.136,3.058c-0.235,0.215 -23.412,21.64 -23.088,39.739c0.186,10.456 -6.124,11.434 -10.731,12.147c-1.684,0.262 -3.222,0.501 -4.461,1.085c-0.259,0.276 -0.586,0.485 -0.966,0.597c-0.339,0.261 -0.652,0.553 -0.915,0.917c-1.593,2.209 -1.839,6.652 -0.731,13.205c0.007,0.038 0.013,0.079 0.017,0.117c0.045,0.406 4.869,39.05 39.081,51.631c-5.92,-15.392 -8.199,-33.56 -6.653,-53.938c2.048,-26.966 9.887,-47.964 10.219,-48.844c0.423,-1.119 1.676,-1.682 2.79,-1.26c1.118,0.423 1.683,1.671 1.26,2.789c-0.306,0.812 -29.151,79.082 11.056,123.978c-0.966,-9.85 0.043,-20.999 3.08,-33.258c5.218,-21.068 14.376,-37.755 14.763,-38.454c0.577,-1.046 1.891,-1.428 2.942,-0.847c1.046,0.579 1.425,1.895 0.847,2.941c-0.366,0.662 -36.213,66.541 -4.652,98.101c3.762,3.929 8.462,7.065 9.894,6.638c0.07,-0.021 0.148,-0.115 0.229,-0.248c-1.711,-7.745 -0.351,-16.53 4.008,-24.935c15.853,-30.557 6.678,-60.339 6.583,-60.636c-0.361,-1.138 0.266,-2.357 1.405,-2.72c1.142,-0.361 2.355,0.266 2.719,1.402c0.409,1.281 9.846,31.74 -6.865,63.947c-3.571,6.886 -4.889,14.221 -3.862,20.663c0.497,0.481 0.757,1.191 0.631,1.925c-0.031,0.178 -0.079,0.327 -0.115,0.492c0.354,1.347 0.808,2.649 1.386,3.881c1.996,4.248 5.212,7.443 9.252,9.298c-2.774,-10.38 -1.1,-26.618 5.048,-48.584c7.004,-25.03 17.493,-48.843 17.599,-49.081c0.483,-1.092 1.763,-1.585 2.855,-1.103c1.093,0.483 1.587,1.762 1.104,2.856c-10.014,22.636 -30.558,78.636 -21.229,98.218c0.076,0.122 0.139,0.252 0.191,0.387c1.266,2.484 3.035,4.351 5.41,5.433c16.439,7.487 18.882,10.604 21.508,15.071c1.205,2.051 2.459,4.17 6.688,7.574c4.229,-3.404 5.482,-5.523 6.689,-7.574c2.624,-4.467 5.067,-7.584 21.507,-15.071c2.373,-1.081 4.143,-2.946 5.408,-5.426c0.055,-0.146 0.122,-0.286 0.205,-0.416c9.307,-19.604 -11.228,-75.569 -21.241,-98.196c-0.483,-1.094 0.01,-2.373 1.104,-2.856c1.094,-0.482 2.372,0.011 2.856,1.103c0.104,0.238 10.593,24.051 17.598,49.081c6.148,21.966 7.82,38.204 5.047,48.584c4.041,-1.855 7.257,-5.051 9.253,-9.298c0.578,-1.232 1.032,-2.535 1.387,-3.881c-0.038,-0.166 -0.085,-0.315 -0.115,-0.492c-0.127,-0.734 0.133,-1.444 0.63,-1.925c1.026,-6.441 -0.291,-13.777 -3.864,-20.663c-16.709,-32.207 -7.273,-62.666 -6.863,-63.947c0.364,-1.138 1.579,-1.764 2.719,-1.402c1.139,0.363 1.767,1.582 1.404,2.72c-0.094,0.297 -9.269,30.079 6.582,60.636c4.36,8.404 5.72,17.19 4.01,24.935c0.079,0.133 0.16,0.227 0.229,0.248c1.416,0.429 6.131,-2.708 9.859,-6.604c31.595,-31.594 -4.251,-97.473 -4.616,-98.135c-0.579,-1.046 -0.2,-2.362 0.846,-2.941c1.044,-0.581 2.363,-0.199 2.942,0.847c0.387,0.699 9.545,17.386 14.763,38.454c3.037,12.26 4.046,23.409 3.078,33.261c40.211,-44.895 11.365,-123.169 11.059,-123.981c-0.421,-1.118 0.142,-2.366 1.26,-2.789c1.118,-0.423 2.368,0.142 2.79,1.26c0.332,0.88 8.171,21.878 10.218,48.844c1.547,20.378 -0.733,38.547 -6.653,53.939c34.274,-12.594 39.036,-51.225 39.081,-51.63c0.004,-0.04 0.01,-0.08 0.016,-0.119c1.108,-6.553 0.863,-10.996 -0.73,-13.205c-0.263,-0.364 -0.576,-0.656 -0.915,-0.917c-0.381,-0.112 -0.708,-0.321 -0.966,-0.597c-1.238,-0.584 -2.777,-0.823 -4.46,-1.085c-4.608,-0.713 -10.919,-1.691 -10.732,-12.147c0.324,-18.122 -22.853,-39.524 -23.088,-39.739c-0.882,-0.806 -0.944,-2.176 -0.137,-3.058c0.808,-0.882 2.175,-0.944 3.059,-0.137c1.015,0.928 24.854,22.957 24.495,43.012c-0.12,6.679 2.585,7.097 7.065,7.792c1.149,0.178 2.353,0.369 3.535,0.689c2.709,-35.755 -34.959,-75.572 -35.35,-75.981c-0.826,-0.864 -0.797,-2.234 0.067,-3.061c0.862,-0.824 2.234,-0.797 3.061,0.068c0.312,0.326 5.874,6.178 12.612,15.415c5.285,7.074 14.46,11.496 20.467,13.779c-19.621,-31.237 -22.532,-76.016 -22.652,-78.013c-0.071,-1.193 0.838,-2.218 2.03,-2.291c1.229,-0.065 2.22,0.838 2.292,2.031c0.028,0.439 2.513,38.588 17.701,68.353c5.911,-4.212 9.496,-9.683 10.653,-16.303c3.518,-20.138 -15.834,-44.703 -16.029,-44.949c-0.745,-0.934 -0.592,-2.296 0.343,-3.041c0.935,-0.744 2.296,-0.593 3.041,0.343c0.108,0.135 0.526,0.666 1.162,1.527c-2.907,-4.781 -7.131,-9.246 -12.676,-13.354m-42.158,-34.129c-0.126,1.105 -1.062,1.92 -2.149,1.92c-0.082,0 -0.164,-0.004 -0.246,-0.013c-3.245,-0.368 -6.127,-0.987 -8.712,-1.79c0.57,1.738 1.049,3.93 1.423,6.627c1.566,11.357 0.526,27.225 -7.562,34.578c-0.187,0.171 -0.399,0.297 -0.62,0.39c-0.817,11.596 -2.252,25.875 -4.517,29.497c-3.099,4.956 -7.096,21.122 -7.997,25.181c-0.16,0.722 -0.671,1.267 -1.308,1.525c0.644,11.04 -1.669,25.323 -15.368,33.646c-0.136,0.082 -0.28,0.149 -0.43,0.199c-0.04,0.015 -0.888,0.288 -2.327,0.573c-0.867,4.523 -5.508,15.594 -30.886,16.779c-0.033,0.002 -0.02,-0.196 -0.02,-0.196l0,-0.199l-0.159,0l0.159,0l0,0.199c0,0 -0.147,0.098 -0.179,0.097c-25.377,-1.186 -30.138,-12.206 -31.005,-16.728c-1.438,-0.286 -2.306,-0.535 -2.347,-0.549c-0.15,-0.051 -0.304,-0.105 -0.44,-0.188c-13.699,-8.321 -16.015,-22.599 -15.373,-33.638c-0.638,-0.258 -1.152,-0.801 -1.313,-1.523c-0.898,-4.056 -4.891,-20.211 -7.996,-25.179c-2.265,-3.623 -3.701,-17.9 -4.517,-29.497c-0.221,-0.093 -0.434,-0.219 -0.621,-0.39c-8.088,-7.352 -9.129,-23.219 -7.562,-34.575c0.345,-2.497 0.779,-4.571 1.295,-6.246c-2.24,0.613 -4.678,1.1 -7.378,1.407c-0.082,0.009 -0.164,0.013 -0.246,0.013c-1.087,0 -2.023,-0.815 -2.149,-1.92c-0.134,-1.189 0.72,-2.261 1.908,-2.396c23.657,-2.681 26.135,-19.24 26.251,-25.2c-0.744,0.033 -1.497,0.054 -2.267,0.054c-3.503,0 -7.281,-0.348 -11.342,-1.157c-1.173,-0.233 -1.934,-1.373 -1.701,-2.546c0.234,-1.172 1.364,-1.935 2.546,-1.699c5.405,1.075 10.248,1.259 14.553,0.881c0.029,-0.003 0.054,-0.013 0.084,-0.017c0.042,-0.004 0.081,0.002 0.123,0c14.841,-1.368 23.124,-9.505 25.026,-11.603c-5.144,-3.651 -10.043,-8.077 -13.421,-13.235c-0.655,-1 -0.375,-2.342 0.625,-2.998c1,-0.652 2.343,-0.374 2.996,0.626c8.855,13.52 30.167,22.016 34.4,23.599c4.233,-1.583 25.546,-10.079 34.4,-23.599c0.655,-1 1.997,-1.278 2.997,-0.626c1,0.656 1.279,1.998 0.624,2.998c-3.244,4.956 -7.894,9.232 -12.815,12.799c0.669,0.809 9.054,10.527 25.391,12.039c0.048,0.002 0.093,-0.005 0.14,0c0.033,0.004 0.062,0.015 0.095,0.02c4.302,0.375 9.142,0.19 14.542,-0.884c1.179,-0.237 2.312,0.527 2.546,1.699c0.233,1.173 -0.528,2.313 -1.7,2.546c-4.06,0.808 -7.841,1.157 -11.343,1.157c-0.767,0 -1.518,-0.021 -2.257,-0.053c0.143,5.968 2.688,22.529 26.241,25.199c1.188,0.135 2.042,1.207 1.908,2.396" style="fill:#231f20;fill-rule:nonzero;"/><path d="M98.694,150.71c0.015,0.019 0.41,0.503 1.137,1.251c0.092,-0.952 0.328,-1.828 0.638,-2.618c-0.853,0.239 -1.662,0.537 -2.39,0.846c0.229,0.131 0.44,0.303 0.615,0.521" style="fill:#231f20;fill-rule:nonzero;"/><path d="M123.388,277.224c-0.769,0 -1.498,-0.027 -2.192,-0.068c1.38,3.806 6.614,10.909 26.433,11.86c19.796,-0.95 25.038,-8.075 26.426,-11.859c-0.691,0.04 -1.42,0.067 -2.185,0.067c-6.688,0 -15.99,-1.856 -24.241,-10.121c-8.252,8.264 -17.555,10.121 -24.241,10.121" style="fill:#231f20;fill-rule:nonzero;"/><path d="M273.615,78.581c1.091,4.091 3.596,13.51 2.854,22.767c0.843,0.489 1.971,1.212 3.211,2.213c1.533,-2.568 3.755,-5.156 6.083,-7.86c4.586,-5.326 9.328,-10.835 8.119,-15.639c-0.961,-3.812 -5.729,-7.386 -14.171,-10.625c-7.603,-2.918 -17.503,-1.703 -25.519,0.248c8.533,0.447 17.708,2.469 19.423,8.896" style="fill:#231f20;fill-rule:nonzero;"/><path d="M132.085,229.855c-1.296,-0.539 -2.375,-0.454 -3.202,0.256c-0.68,0.582 -0.984,1.396 -1.041,1.857c0.454,0.188 1.181,0.442 1.797,0.658c4.575,1.6 13.798,4.835 17.99,13.981c4.192,-9.146 13.415,-12.381 17.989,-13.981c0.617,-0.216 1.344,-0.47 1.798,-0.658c-0.057,-0.461 -0.361,-1.275 -1.041,-1.857c-0.826,-0.711 -1.904,-0.796 -3.203,-0.256c-5.677,2.366 -14.525,2.054 -15.544,2.009c-1.03,0.045 -9.872,0.354 -15.543,-2.009" style="fill:#231f20;fill-rule:nonzero;"/><path d="M105.599,149.022c-0.612,0.777 -1.452,2.12 -1.485,3.705c-0.029,1.4 0.6,2.807 1.87,4.188c1.509,0.487 4.845,1.184 6.602,-0.106c1.005,-0.738 1.511,-2.176 1.512,-4.278c-2.397,-1.739 -5.408,-2.743 -8.368,-3.483c-0.043,-0.011 -0.088,-0.016 -0.131,-0.026" style="fill:#231f20;fill-rule:nonzero;"/></g></svg>