<?xml version="1.0" encoding="UTF-8" standalone="no"?><!DOCTYPE svg PUBLIC "-//W3C//DTD SVG 1.1//EN" "http://www.w3.org/Graphics/SVG/1.1/DTD/svg11.dtd"><svg width="100%" height="100%" viewBox="0 0 842 237" version="1.1" xmlns="http://www.w3.org/2000/svg" xmlns:xlink="http://www.w3.org/1999/xlink" xml:space="preserve" xmlns:serif="http://www.serif.com/" style="fill-rule:evenodd;clip-rule:evenodd;stroke-linejoin:round;stroke-miterlimit:2;"><g><path d="M105.423,236.232l10.387,0l0,-235.909l-10.387,0l0,235.909Zm-20.774,0l10.387,0l0,-235.909l-10.387,0l0,235.909Zm-20.774,0l10.387,0l0,-235.909l-10.387,0l0,235.909Zm292.267,0l11.251,0l94.353,-235.909l-11.11,0l-88.872,222.091l-88.871,-222.091l-11.252,0l94.501,235.909Zm-61.028,-235.909l-11.111,0l79.061,197.732l5.917,-13.107l-73.867,-184.625Zm22.503,0l-11.252,0l68.239,170.666l5.481,-14.106l-62.468,-156.56Zm83.249,235.909l11.104,0l94.5,-235.909l-11.111,0l-94.493,235.909Zm-22.362,0l11.104,0l94.5,-235.909l-11.251,0l-94.353,235.909Zm291.516,-235.909l-10.387,0l62.321,128.495l5.194,-11.251l-57.128,-117.244Zm20.774,0l-10.387,0l51.793,105.986l5.341,-11.251l-46.747,-94.735Zm44,235.909l10.393,0l0,-79.49l75.161,-156.419l-10.387,0l-75.167,156.419l0,79.49Zm20.78,0l10.387,0l0,-79.49l75.161,-156.419l-10.387,0l-75.161,156.419l0,79.49Zm-106.328,-235.909l-10.387,0l75.161,156.419l0,79.49l10.387,0l0,-79.49l75.167,-156.419l-10.387,0l-69.974,145.59l-69.967,-145.59Z" style="fill-rule:nonzero;"/><g transform="matrix(6.12323e-17,-1,1,6.12323e-17,-1796.35,581.361)"><text x="341.46px" y="1826.44px" style="font-family:'BasisGrotesquePro', 'Basis Grotesque Pro';font-size:41.695px;stroke:#000;stroke-width:0.2px;">E<tspan x="382.446px 426.393px 467.962px 511.283px 558.982px " y="1826.44px 1826.44px 1826.44px 1826.44px 1826.44px ">SPACE</tspan></text></g></g></svg>