<?xml version="1.0" encoding="UTF-8" standalone="no"?><!DOCTYPE svg PUBLIC "-//W3C//DTD SVG 1.1//EN" "http://www.w3.org/Graphics/SVG/1.1/DTD/svg11.dtd"><svg width="100%" height="100%" viewBox="0 0 776 776" version="1.1" xmlns="http://www.w3.org/2000/svg" xmlns:xlink="http://www.w3.org/1999/xlink" xml:space="preserve" xmlns:serif="http://www.serif.com/" style="fill-rule:evenodd;clip-rule:evenodd;stroke-linejoin:round;stroke-miterlimit:2;"><g id="logo-ivy" serif:id="logo ivy"><rect x="380.318" y="4.042" width="14.548" height="353.503"/><path d="M387.595,775.093c-213.666,0 -387.488,-173.833 -387.488,-387.488c0,-213.676 173.822,-387.498 387.488,-387.498c213.665,0 387.498,173.822 387.498,387.498c0,213.655 -173.833,387.488 -387.498,387.488m0,-759.633c-205.194,0 -372.135,166.952 -372.135,372.145c0,205.194 166.941,372.135 372.135,372.135c205.193,0 372.145,-166.941 372.145,-372.135c0,-205.193 -166.952,-372.145 -372.145,-372.145" style="fill-rule:nonzero;"/><path d="M512.148,141.261l-124.451,332.792l-124.451,-332.792l-15.757,0l132.324,353.503l15.768,0l132.128,-353.503l-15.561,0Z" style="fill-rule:nonzero;"/><path d="M485.584,413.839l-97.991,218.174l-97.99,-218.174l-15.877,0l106.594,237.393l0,116.11l14.558,0l0,-115.957l106.626,-237.546l-15.92,0Z" style="fill-rule:nonzero;"/></g></svg>