<?xml version="1.0" encoding="UTF-8" standalone="no"?><!DOCTYPE svg PUBLIC "-//W3C//DTD SVG 1.1//EN" "http://www.w3.org/Graphics/SVG/1.1/DTD/svg11.dtd"><svg width="100%" height="100%" viewBox="0 0 289 342" version="1.1" xmlns="http://www.w3.org/2000/svg" xmlns:xlink="http://www.w3.org/1999/xlink" xml:space="preserve" xmlns:serif="http://www.serif.com/" style="fill-rule:evenodd;clip-rule:evenodd;stroke-linejoin:round;stroke-miterlimit:2;"><path d="M287.794,96.017c-0.501,-0.222 -1.086,0.011 -1.305,0.512c-2.022,4.624 -9.993,11.331 -15.218,13.688c-0.01,-0.942 -0.028,-1.866 -0.047,-2.759l-0.036,-1.94c-0.076,-5.061 0.053,-11.377 1.74,-15.326c0.891,-2.085 2.292,-3.753 3.774,-5.52c1.326,-1.579 2.696,-3.211 3.654,-5.155c0.242,-0.491 0.039,-1.085 -0.453,-1.328c-0.488,-0.239 -1.084,-0.038 -1.327,0.453c-0.851,1.728 -2.086,3.199 -3.392,4.756c-1.511,1.798 -3.073,3.659 -4.08,6.015c-0.333,0.779 -0.594,1.655 -0.825,2.564c-0.135,-0.536 -0.275,-1.081 -0.416,-1.634c-2.173,-8.5 -5.15,-20.142 -3.315,-27.55c0.131,-0.532 -0.193,-1.069 -0.725,-1.201c-0.531,-0.131 -1.068,0.193 -1.2,0.725c-1.955,7.891 0.97,19.328 3.319,28.517c0.575,2.247 1.115,4.365 1.509,6.164c-0.266,2.877 -0.285,5.883 -0.245,8.549l0.035,1.95c0.209,10.345 0.441,22.03 -10.594,25.375c-0.465,-1.749 -0.884,-3.563 -1.338,-5.562c-0.208,-0.92 -0.425,-1.872 -0.657,-2.865c-0.766,-3.273 -2.531,-6.128 -4.235,-8.888c-1.818,-2.942 -3.697,-5.985 -4.403,-9.57c-0.671,-3.409 -0.737,-7.026 -0.805,-10.854c-0.102,-5.585 -0.207,-11.359 -2.36,-16.441c-1.679,-3.961 -4.169,-6.709 -6.959,-9.211c0.254,-0.017 0.504,-0.121 0.684,-0.328c1.627,-1.876 2.874,-8.682 3.134,-14.209c0.028,0.003 0.055,0.01 0.084,0.01c0.178,0 0.358,-0.047 0.519,-0.148c3.14,-1.939 4.361,-6.233 5.543,-10.386c0.96,-3.375 1.952,-6.866 3.911,-8.946c0.376,-0.399 0.357,-1.027 -0.042,-1.401c-0.399,-0.377 -1.026,-0.358 -1.401,0.041c-2.291,2.432 -3.351,6.159 -4.376,9.764c-1.048,3.684 -2.057,7.155 -4.188,8.862c-0.007,-1.41 -0.096,-2.655 -0.283,-3.597c-0.673,-3.394 -2.604,-6.019 -4.471,-8.559c-2.099,-2.852 -4.08,-5.612 -4.136,-9.177c-0.009,-0.542 -0.452,-1.042 -0.992,-1.042l-0.017,0c-0.546,0 -0.983,0.527 -0.975,1.075c0.068,4.197 2.332,7.308 4.522,10.285c1.818,2.474 3.537,4.827 4.125,7.787c0.956,4.82 -0.835,16.464 -2.456,18.333c-0.176,0.204 -0.252,0.462 -0.238,0.711c-0.679,-0.584 -1.366,-1.16 -2.065,-1.742c-1.848,-1.538 -3.758,-3.126 -5.517,-4.963c-2.165,-2.26 -3.934,-4.397 -5.645,-6.465c-5.599,-6.766 -10.021,-12.108 -22.055,-13.134c-1.59,-0.135 -3.054,-0.274 -4.422,-0.429c-1.54,-3.692 -2.154,-7.523 -2.738,-11.235c-0.473,-3.013 -0.965,-6.092 -1.95,-9.135c0.329,-1.459 0.842,-3.139 1.389,-4.92c1.607,-5.233 3.429,-11.164 1.973,-15.749c-0.166,-0.52 -0.721,-0.812 -1.245,-0.644c-0.522,0.165 -0.81,0.723 -0.645,1.245c1.268,3.993 -0.457,9.61 -1.979,14.566c-0.249,0.812 -0.488,1.597 -0.712,2.362c-0.29,-0.626 -0.604,-1.251 -0.956,-1.871c-2.101,-3.694 -5.38,-6.388 -8.549,-8.992c-2.556,-2.102 -5.198,-4.272 -7.218,-6.961c-0.33,-0.438 -0.95,-0.525 -1.388,-0.197c-0.438,0.329 -0.526,0.95 -0.198,1.388c2.163,2.878 4.899,5.127 7.545,7.301c3.17,2.606 6.164,5.066 8.084,8.441c2.448,4.303 3.148,8.758 3.891,13.474c0.549,3.488 1.115,7.078 2.442,10.642c-8.442,-1.213 -12.806,-3.633 -18.877,-12.098c-2.464,-3.437 -5.102,-5.133 -7.897,-6.93c-0.933,-0.6 -1.898,-1.22 -2.893,-1.928c-1.354,-0.963 -2.675,-2.278 -4.073,-3.669c-2.675,-2.664 -5.441,-5.417 -8.979,-6.25c-3.926,-0.926 -9.092,1.235 -14.09,3.322c-5.312,2.218 -10.805,4.51 -13.259,2.236c-0.401,-0.374 -1.028,-0.35 -1.401,0.053c-0.371,0.401 -0.348,1.028 0.054,1.401c3.389,3.143 9.209,0.713 15.37,-1.86c4.709,-1.965 9.583,-3.999 12.871,-3.221c2.992,0.703 5.555,3.256 8.035,5.724c1.12,1.115 2.194,2.179 3.305,3.094c-4.674,0.441 -8.095,1.907 -11.665,3.462c-2.508,1.093 -5.102,2.222 -8.284,3.028c-3.224,0.818 -6.732,0.541 -10.123,0.27c-5.201,-0.411 -10.583,-0.84 -15.353,2.506c-0.449,0.314 -0.557,0.932 -0.242,1.381c0.192,0.275 0.499,0.422 0.812,0.422c0.196,0 0.395,-0.058 0.568,-0.18c4.185,-2.934 8.978,-2.554 14.058,-2.152c3.161,0.252 6.419,0.504 9.594,-0.075c-0.186,5.259 -7.08,7.593 -13.213,9.044c-0.532,0.126 -0.862,0.659 -0.735,1.193c0.107,0.456 0.514,0.763 0.963,0.763c0.076,0 0.153,-0.009 0.23,-0.027c4.559,-1.079 15.019,-3.556 14.738,-11.442c2.963,-0.822 5.411,-1.882 7.779,-2.913c3.997,-1.741 7.789,-3.377 13.445,-3.432c0.48,0.316 0.952,0.62 1.416,0.918c2.745,1.764 5.115,3.288 7.358,6.418c7.945,11.079 13.409,12.473 26.996,13.631c11.205,0.956 15.186,5.766 20.696,12.424c1.734,2.095 3.526,4.26 5.739,6.572c1.839,1.919 3.792,3.544 5.681,5.117c3.817,3.175 7.422,6.176 9.52,11.125c2.003,4.729 2.105,10.308 2.203,15.704c0.031,1.731 0.066,3.488 0.161,5.232c-1.923,1.332 -5.047,1.826 -8.393,1.764c-0.97,-2.397 -1.71,-4.734 -2.416,-6.997c-2.175,-6.971 -4.229,-13.556 -12.75,-18.911c-0.462,-0.29 -1.075,-0.151 -1.367,0.312c-0.292,0.464 -0.152,1.075 0.312,1.367c7.901,4.966 9.76,10.923 11.912,17.823c0.636,2.036 1.299,4.133 2.134,6.299c-3.412,-0.289 -6.813,-1.075 -9.169,-2.064c-4.336,-1.822 -5.638,-4.81 -7.144,-8.27c-0.842,-1.93 -1.71,-3.926 -3.155,-5.951c-4.654,-6.53 -11.345,-8.428 -17.816,-10.262c-5.44,-1.542 -10.579,-2.999 -14.522,-7.038c-0.382,-0.393 -1.01,-0.4 -1.402,-0.018c-0.392,0.382 -0.4,1.011 -0.017,1.402c4.313,4.418 9.949,6.017 15.4,7.562c5.893,1.67 11.482,3.266 15.648,8.12c-3.575,0.444 -7.105,1.439 -10.535,2.411c-6.245,1.769 -12.143,3.441 -18.264,2.06c-0.537,-0.12 -1.065,0.213 -1.186,0.749c-0.119,0.534 0.216,1.065 0.75,1.185c1.717,0.387 3.421,0.551 5.111,0.551c4.821,0 9.533,-1.335 14.129,-2.638c3.732,-1.057 7.584,-2.138 11.392,-2.468c1.141,1.709 1.916,3.443 2.649,5.127c1.607,3.69 3.125,7.177 8.193,9.305c2.622,1.102 6.913,2.103 11.18,2.306c0.087,0.025 0.177,0.04 0.269,0.04c0.046,0 0.091,-0.022 0.137,-0.028c0.377,0.013 0.755,0.032 1.129,0.032c2.959,0 5.794,-0.447 7.951,-1.556c0.118,1.274 0.281,2.532 0.521,3.755c0.776,3.939 2.751,7.136 4.661,10.229c1.697,2.746 3.3,5.34 3.992,8.297c0.231,0.99 0.446,1.938 0.654,2.854c1.394,6.132 2.496,10.981 6.012,17.199c0.163,0.384 2.925,7.041 2.359,15.683c-0.34,5.184 0.559,14.679 1.6,25.673c1.512,15.962 3.224,34.053 1.514,43.475c-1.443,7.958 -11.043,27.389 -23.672,46.594c-0.003,0.006 -0.009,0.01 -0.011,0.016c-11.495,17.476 -25.496,34.762 -38.149,43.041c-10.116,6.621 -27.416,14.664 -46.492,18.117c-1.503,-0.286 -13.812,-3.217 -13.038,-21.685c4.03,-0.231 7.657,-5.359 9.606,-8.125c0.349,-0.492 0.642,-0.912 0.87,-1.2c1.166,-1.482 0.898,-2.744 0.633,-3.364c-0.738,-1.731 -2.574,-1.911 -3.789,-2.033c-0.084,-0.007 -0.183,-0.017 -0.287,-0.027c-0.577,-1.246 -1.991,-3.473 -5.533,-7.622l-1.613,-1.892l-1.886,1.619c-4.128,3.543 -5.867,5.52 -6.629,6.657c-0.102,-0.005 -0.203,-0.011 -0.286,-0.015c-1.218,-0.074 -3.058,-0.184 -4.061,1.41c-0.358,0.571 -0.822,1.774 0.097,3.422c0.178,0.322 0.402,0.779 0.668,1.32c1.191,2.428 3.201,6.524 5.974,8.51c1.261,0.903 2.678,1.369 4.247,1.046c0.006,0.003 0.012,0.003 0.018,0.005c-0.683,14.594 6.317,20.407 10.96,22.64c-1.654,0.237 -3.37,0.444 -5.141,0.607c-3.427,-2.822 -35.617,-29.459 -40.19,-38.368c-0.069,-0.133 -0.168,-0.239 -0.279,-0.325c3.993,-2.349 3.068,-9.567 2.587,-13.274c-0.077,-0.599 -0.145,-1.106 -0.173,-1.472c-0.143,-1.882 -1.193,-2.629 -1.808,-2.907c-1.715,-0.775 -3.188,0.333 -4.166,1.067c-0.066,0.051 -0.147,0.112 -0.231,0.174c-1.266,-0.527 -3.814,-1.21 -9.229,-1.871l-2.468,-0.301l-0.294,2.468c-0.644,5.403 -0.587,8.034 -0.379,9.388c-0.079,0.065 -0.156,0.129 -0.221,0.181c-0.947,0.77 -2.377,1.933 -2.036,3.786c0.122,0.663 0.595,1.862 2.386,2.455c0.35,0.115 0.824,0.302 1.386,0.521c2.519,0.982 6.785,2.637 10.17,2.224c1.13,-0.138 2.027,-0.509 3.018,-1.211l0,0.003c4.958,8.539 31.521,31.403 39.088,37.679c-14.697,0.908 -32.283,-1.481 -45.735,-13.954c-9.456,-8.766 -19.051,-15.374 -28.325,-21.765c-6.015,-4.144 -11.781,-8.12 -17.056,-12.403c-0.003,-0.003 -0.007,-0.005 -0.011,-0.007c-12.225,-9.93 -21.805,-21.519 -25.674,-40.745c-1.081,-5.377 -2.326,-10.984 -3.529,-16.406c-4.321,-19.465 -8.713,-39.279 -8.331,-58.062c0.019,-0.059 0.046,-0.113 0.054,-0.174c0.208,-0.381 2.763,-3.801 27.47,-5.15c0.097,-0.004 0.182,-0.038 0.27,-0.069c-0.008,0.259 -0.003,0.522 0.034,0.794c-2.139,4.66 3.956,9.628 7.005,12.113c0.468,0.382 0.864,0.704 1.137,0.949c1.397,1.269 2.673,1.088 3.31,0.867c1.78,-0.615 2.088,-2.434 2.293,-3.636c0.013,-0.086 0.029,-0.183 0.047,-0.286c1.281,-0.489 3.603,-1.745 7.989,-4.988l1.999,-1.477l-1.483,-1.996c-3.248,-4.367 -5.097,-6.237 -6.181,-7.077c0.013,-0.102 0.026,-0.201 0.037,-0.282c0.158,-1.212 0.395,-3.038 -1.126,-4.149c-0.544,-0.397 -1.712,-0.945 -3.419,-0.144c-0.333,0.157 -0.806,0.348 -1.363,0.575c-2.507,1.02 -6.731,2.739 -8.907,5.368c-0.439,0.533 -0.789,1.105 -1.03,1.714c-0.192,-0.181 -0.45,-0.287 -0.72,-0.255c-16.931,0.924 -24.273,2.837 -27.319,4.589c0.137,-3.017 0.41,-6.005 0.83,-8.959c1.205,-1.468 13.85,-16.222 34.455,-15.426c0.076,0.006 0.143,-0.017 0.214,-0.029c0.076,0.093 0.149,0.187 0.233,0.277c0.978,5.033 8.828,5.515 12.754,5.755c0.602,0.037 1.113,0.067 1.478,0.108c1.874,0.216 2.806,-0.676 3.195,-1.226c1.086,-1.539 0.276,-3.196 -0.26,-4.292c-0.039,-0.076 -0.082,-0.166 -0.128,-0.26c0.757,-1.144 1.91,-3.518 3.581,-8.711l0.762,-2.365l-2.369,-0.757c-5.184,-1.652 -7.778,-2.094 -9.147,-2.144c-0.05,-0.091 -0.097,-0.178 -0.135,-0.251c-0.579,-1.075 -1.451,-2.698 -3.334,-2.714c-0.674,-0.006 -1.942,0.231 -2.861,1.878c-0.179,0.322 -0.453,0.752 -0.773,1.261c-1.441,2.291 -3.87,6.151 -4.103,9.556c-0.046,0.663 -0.001,1.308 0.144,1.922c-16.793,-0.329 -28.473,9.244 -33.125,13.88c2.101,-11.273 6.553,-22.004 14.562,-31.851c17.555,-21.584 36.513,-37.046 54.824,-44.714c22.282,-9.33 43.415,-7.293 62.819,6.054c2.134,1.468 4.211,2.876 6.239,4.236c1.19,1.61 13.922,19.26 10.566,32.395c-4.053,-1.414 -9.255,2.909 -11.991,5.191c-0.463,0.385 -0.854,0.714 -1.149,0.935c-1.512,1.129 -1.576,2.418 -1.481,3.085c0.264,1.864 1.992,2.512 3.135,2.943c0.078,0.029 0.173,0.064 0.271,0.103c0.234,1.349 1.025,3.866 3.373,8.79l1.069,2.246l2.241,-1.077c4.904,-2.357 7.095,-3.816 8.124,-4.717c0.1,0.031 0.193,0.063 0.272,0.089c1.158,0.385 2.908,0.966 4.287,-0.314c0.496,-0.459 1.253,-1.502 0.793,-3.33c-0.09,-0.357 -0.188,-0.858 -0.304,-1.447c-0.525,-2.655 -1.409,-7.13 -3.574,-9.767c-0.849,-1.034 -1.896,-1.781 -3.195,-2.027c2.86,-10.666 -3.921,-23.614 -8.061,-30.183c3.809,2.518 7.409,4.857 10.765,7.036c2.972,1.929 5.771,3.749 8.4,5.487c0.01,0.073 0.008,0.147 0.035,0.22c0.109,0.293 10.654,28.913 7.463,38.557c-0.103,0.052 -0.204,0.098 -0.305,0.159c-5.128,-0.113 -7.266,7.455 -8.335,11.241c-0.166,0.579 -0.302,1.072 -0.421,1.419c-0.608,1.787 0.065,2.885 0.521,3.383c1.27,1.39 3.062,0.949 4.249,0.658c0.08,-0.02 0.179,-0.044 0.281,-0.067c0.956,0.981 3.03,2.61 7.749,5.349l2.15,1.25l1.241,-2.155c2.718,-4.714 3.699,-7.156 4.04,-8.48c0.101,-0.033 0.196,-0.058 0.275,-0.081c1.173,-0.337 2.945,-0.845 3.362,-2.68c0.148,-0.659 0.185,-1.948 -1.228,-3.195c-0.276,-0.245 -0.639,-0.603 -1.068,-1.025c-1.932,-1.894 -5.189,-5.087 -8.464,-6.04c-0.622,-0.18 -1.244,-0.274 -1.858,-0.269c1.98,-9.429 -4.597,-29.615 -6.979,-36.438c16.298,10.951 25.205,18.867 25.688,31.58c0.3,7.92 -0.402,18.778 -1.146,30.275c-0.946,14.626 -1.91,29.648 -0.874,39.884c0.002,0.031 0.005,0.059 0.01,0.089c0.21,2.045 0.492,3.915 0.881,5.531c1.702,7.089 -7.716,22.52 -22.867,32.562c-0.372,0.247 -0.76,0.496 -1.154,0.746c-0.188,-0.127 -0.41,-0.201 -0.645,-0.172c-0.093,0.009 -9.413,0.979 -19.09,0.802c-9.126,-0.168 -15.613,-1.307 -18.902,-3.267c3.429,-3.114 1.052,-9.99 -0.174,-13.522c-0.198,-0.569 -0.367,-1.052 -0.469,-1.406c-0.523,-1.813 -1.705,-2.328 -2.363,-2.475c-1.837,-0.411 -3.054,0.976 -3.86,1.892c-0.055,0.064 -0.122,0.139 -0.191,0.218c-1.346,-0.259 -3.981,-0.407 -9.418,0.049l-2.477,0.207l0.217,2.478c0.47,5.42 1.062,7.984 1.541,9.266c-0.065,0.082 -0.127,0.158 -0.179,0.222c-0.77,0.948 -1.933,2.379 -1.223,4.123c0.255,0.624 0.963,1.703 2.837,1.916c0.365,0.043 0.868,0.13 1.462,0.227c2.667,0.449 7.167,1.204 10.398,0.109c1.066,-0.361 1.986,-0.931 2.662,-1.772c3.643,2.288 10.358,3.54 20.103,3.718c0.819,0.014 1.633,0.021 2.44,0.021c5.526,0 10.692,-0.32 13.823,-0.564c-13.506,7.434 -36.147,13.709 -63.309,-3.14c-0.003,-0.002 -0.005,-0.006 -0.008,-0.008c-0.006,-0.004 -0.012,-0.004 -0.017,-0.007c-2.08,-1.291 -4.187,-2.714 -6.318,-4.288c-11.882,-8.768 -20.288,-18.179 -25.181,-28.108c0.294,-2.508 2.755,-21.01 11.436,-24.358c0.511,-0.196 0.766,-0.77 0.568,-1.28c-0.195,-0.512 -0.772,-0.766 -1.28,-0.569c-7.996,3.083 -11.166,16.429 -12.247,22.846c-1.617,-3.966 -2.699,-8.008 -3.207,-12.125c-1.972,-15.969 5.162,-28.886 9.59,-35.165c8.531,-12.095 18.323,-16.881 20.588,-15.354c2.401,1.617 7.222,1.487 13.331,1.324c10.465,-0.278 24.803,-0.663 33.23,8.089c2.06,2.141 3.687,4.764 4.883,7.851c1.136,4.049 1.836,7.384 2.233,10.132c0.259,2.822 0.298,5.872 0.112,9.148c-0.112,0.549 -0.244,1.011 -0.385,1.398c-0.09,0.132 -0.149,0.278 -0.174,0.439c-0.488,1.112 -0.996,1.432 -0.999,1.435c-0.15,0.067 -0.28,0.168 -0.38,0.297c-4.763,6.175 -9.748,9.329 -14.814,9.384c-3.352,0.042 -6.198,-1.303 -8.269,-2.722c0.051,-0.118 0.122,-0.218 0.165,-0.343c4.003,-3.205 0.785,-10.38 -0.827,-13.969c-0.246,-0.55 -0.457,-1.017 -0.59,-1.359c-0.68,-1.761 -1.902,-2.171 -2.571,-2.259c-1.865,-0.25 -2.956,1.239 -3.68,2.223c-0.048,0.068 -0.108,0.149 -0.17,0.233c-1.365,-0.139 -4.001,-0.057 -9.377,0.874l-2.45,0.423l0.432,2.449c0.944,5.358 1.757,7.86 2.348,9.096c-0.056,0.087 -0.113,0.168 -0.159,0.238c-0.684,1.011 -1.718,2.538 -0.856,4.213c0.308,0.599 1.107,1.612 2.992,1.662c0.368,0.009 0.877,0.051 1.476,0.098c2.697,0.212 7.245,0.569 10.368,-0.803c0.689,-0.303 1.303,-0.761 1.817,-1.252c2.294,1.545 5.446,2.936 9.217,2.936l0.136,0c5.526,0 10.867,-3.138 15.881,-9.405c-0.753,5.944 -3.557,18.126 -13.854,22.715c0.187,-4.464 -5.976,-7.876 -9.175,-9.651c-0.526,-0.292 -0.975,-0.531 -1.286,-0.726c-1.599,-1.003 -2.824,-0.595 -3.412,-0.265c-1.643,0.917 -1.626,2.764 -1.615,3.986c0.002,0.084 0.002,0.186 0.003,0.29c-1.176,0.705 -3.239,2.352 -6.984,6.317l-1.709,1.807l1.812,1.702c3.965,3.726 6.116,5.241 7.329,5.878c0.006,0.103 0.011,0.202 0.015,0.285c0.058,1.219 0.145,3.06 1.839,3.886c0.605,0.297 1.852,0.628 3.39,-0.462c0.301,-0.211 0.733,-0.482 1.242,-0.805c2.285,-1.445 6.142,-3.884 7.821,-6.853c0.601,-1.067 0.916,-2.202 0.783,-3.384c14.561,-5.825 15.93,-24.852 16.051,-27.712c0.116,-0.295 0.226,-0.621 0.327,-0.979c0.129,-0.155 0.227,-0.339 0.24,-0.555c0.014,-0.207 0.019,-0.406 0.031,-0.611c0.397,-2.126 0.492,-5.159 -0.116,-9.462c-0.143,-1.564 -0.352,-3.063 -0.625,-4.496c3.474,3.557 9.647,10.762 10.418,17.688c-0.594,0.152 -1.166,0.41 -1.701,0.811c-5.112,0.401 -6.481,8.145 -7.164,12.019c-0.106,0.593 -0.194,1.098 -0.277,1.457c-0.427,1.837 0.353,2.864 0.858,3.313c1.403,1.254 3.142,0.635 4.293,0.227c0.079,-0.028 0.174,-0.062 0.272,-0.096c1.051,0.882 3.278,2.295 8.248,4.545l2.264,1.028l1.018,-2.269c2.231,-4.962 2.964,-7.49 3.17,-8.844c0.095,-0.039 0.187,-0.075 0.266,-0.106c1.132,-0.453 2.845,-1.135 3.075,-3.005c0.082,-0.668 -0.011,-1.955 -1.542,-3.055c-0.299,-0.215 -0.696,-0.536 -1.167,-0.912c-2.111,-1.691 -5.672,-4.541 -9.026,-5.161c-0.203,-0.037 -0.406,-0.065 -0.607,-0.085c-1.046,-9.904 -11.698,-19.757 -13.264,-21.156c-0.254,-0.865 -0.528,-1.711 -0.839,-2.519c-0.014,-0.047 -0.024,-0.09 -0.038,-0.137c-0.018,-0.066 -0.06,-0.116 -0.09,-0.175c-1.282,-3.228 -3.014,-5.991 -5.204,-8.265c-9.035,-9.384 -23.883,-8.988 -34.712,-8.696c-5.526,0.148 -10.296,0.276 -12.17,-0.987c-1.567,-1.055 -4.036,-0.72 -6.921,0.665c2.706,-4.688 8.802,-13.538 17.632,-16.636c0.242,4.398 6.537,7.342 9.824,8.872c0.546,0.254 1.01,0.469 1.335,0.641c1.666,0.888 2.859,0.399 3.423,0.028c1.573,-1.033 1.425,-2.872 1.328,-4.089c-0.008,-0.084 -0.016,-0.184 -0.023,-0.289c1.123,-0.787 3.063,-2.574 6.52,-6.795l1.576,-1.923l-1.929,-1.569c-4.218,-3.435 -6.471,-4.796 -7.726,-5.345c-0.014,-0.101 -0.025,-0.2 -0.035,-0.282c-0.144,-1.212 -0.362,-3.043 -2.109,-3.747c-0.625,-0.252 -1.892,-0.495 -3.35,0.701c-0.284,0.233 -0.697,0.534 -1.181,0.891c-2.178,1.604 -5.852,4.309 -7.316,7.39c-0.534,1.125 -0.765,2.3 -0.529,3.49c-5.261,1.728 -10.332,5.553 -14.8,11.207c-3.386,4.287 -5.379,8.257 -5.897,9.344c-2.904,1.954 -6.017,4.719 -8.956,8.029c-1.837,-11.959 -2.432,-24.901 -0.209,-26.139c0.212,-0.118 0.352,-0.307 0.433,-0.518c4.458,1.502 9.229,-4.11 11.667,-6.987c0.39,-0.46 0.719,-0.851 0.971,-1.12c1.294,-1.372 1.137,-2.652 0.93,-3.294c-0.583,-1.79 -2.395,-2.132 -3.594,-2.359c-0.083,-0.016 -0.182,-0.034 -0.284,-0.054c-0.464,-1.291 -1.676,-3.635 -4.836,-8.082l-1.439,-2.027l-2.023,1.445c-4.427,3.164 -6.332,4.979 -7.193,6.045c-0.102,-0.015 -0.2,-0.029 -0.282,-0.042c-1.207,-0.18 -3.03,-0.453 -4.17,1.047c-0.408,0.536 -0.977,1.693 -0.208,3.416c0.151,0.336 0.332,0.812 0.549,1.374c0.972,2.525 2.611,6.781 5.198,9.006c0.713,0.612 1.498,1.067 2.361,1.292c-1.105,1.551 -2,5.338 -1.198,15.474c0.505,6.378 1.481,12.561 1.635,13.514c-0.856,1.053 -1.69,2.148 -2.491,3.283c-7.93,11.245 -11.46,24.225 -9.937,36.55c2.01,16.275 12.34,31.397 30.702,44.947c0.31,0.229 0.618,0.434 0.928,0.658c-6.024,-0.117 -21.866,-1.65 -29.18,-14.058c2.336,-3.128 1.28,-9.012 0.697,-12.232c-0.107,-0.594 -0.2,-1.096 -0.247,-1.461c-0.237,-1.871 -1.324,-2.565 -1.952,-2.811c-1.751,-0.689 -3.169,0.492 -4.107,1.275c-0.063,0.054 -0.141,0.119 -0.221,0.185c-1.292,-0.462 -3.871,-1.016 -9.313,-1.405l-2.48,-0.177l-0.169,2.481c-0.371,5.428 -0.182,8.053 0.094,9.396c-0.076,0.068 -0.149,0.135 -0.211,0.191c-0.907,0.815 -2.276,2.051 -1.842,3.884c0.155,0.656 0.687,1.831 2.505,2.33c0.356,0.099 0.838,0.262 1.41,0.452c2.567,0.853 6.895,2.294 10.256,1.71c1.526,-0.264 2.853,-0.948 3.724,-2.293c0.124,-0.057 0.227,-0.134 0.343,-0.199c4.044,6.639 10.989,11.279 20.146,13.427c4.75,1.115 8.929,1.305 11.223,1.305c1.11,0 1.778,-0.045 1.857,-0.051c0.066,-0.005 0.121,-0.034 0.182,-0.05c0.626,0.421 1.25,0.822 1.871,1.219c-1.489,1.79 -5.695,6.082 -12.677,7.339c-7.899,1.422 -16.799,-1.403 -26.452,-8.393c-0.109,-0.08 -0.23,-0.133 -0.354,-0.162c-0.929,-3.59 -5.325,-6.805 -7.806,-8.611c-0.487,-0.356 -0.901,-0.654 -1.188,-0.886c-1.464,-1.19 -2.728,-0.94 -3.353,-0.685c-1.742,0.712 -1.951,2.544 -2.089,3.757c-0.009,0.084 -0.021,0.185 -0.033,0.288c-1.253,0.558 -3.5,1.939 -7.705,5.415l-1.914,1.586l1.589,1.912c3.48,4.18 5.431,5.948 6.557,6.728c-0.008,0.101 -0.014,0.201 -0.02,0.286c-0.092,1.215 -0.23,3.054 1.349,4.08c0.566,0.367 1.762,0.849 3.423,-0.044c0.323,-0.175 0.785,-0.39 1.33,-0.648c2.446,-1.156 6.571,-3.104 8.599,-5.846c0.921,-1.246 1.409,-2.657 1.11,-4.23c0.095,-0.242 0.155,-0.483 0.21,-0.723c8.059,5.658 15.667,8.516 22.687,8.516c1.498,0 2.969,-0.13 4.411,-0.389c7.899,-1.421 12.5,-6.321 14.029,-8.229c31.157,18.933 56.528,8.358 69.369,-0.153c15.325,-10.158 24.44,-25.054 23.91,-33.225c3.361,8.257 7.725,23.437 1.992,37.214c-4.179,-1.285 -9.148,3.497 -11.743,6.004c-0.434,0.418 -0.801,0.775 -1.078,1.016c-1.426,1.236 -1.398,2.526 -1.254,3.184c0.399,1.84 2.169,2.361 3.34,2.707c0.081,0.024 0.177,0.053 0.277,0.083c0.333,1.33 1.305,3.782 4.003,8.523l1.229,2.162l2.157,-1.238c4.721,-2.705 6.799,-4.32 7.761,-5.293c0.1,0.024 0.197,0.048 0.277,0.068c1.183,0.301 2.97,0.754 4.254,-0.624c0.459,-0.493 1.141,-1.587 0.548,-3.377c-0.116,-0.35 -0.249,-0.843 -0.408,-1.423c-0.716,-2.608 -1.923,-7.009 -4.273,-9.481c-0.883,-0.927 -1.929,-1.576 -3.169,-1.762c8.14,-19.954 -3.728,-42.449 -4.988,-44.737c-0.471,-4.753 -0.508,-10.581 -0.312,-16.958c4.62,2.112 20.013,9.698 22.511,18.114c-4.335,1.48 -5.008,8.659 -5.352,12.358c-0.057,0.599 -0.103,1.11 -0.156,1.473c-0.275,1.867 0.588,2.826 1.125,3.231c1.502,1.136 3.185,0.377 4.298,-0.123c0.076,-0.035 0.168,-0.077 0.264,-0.119c1.12,0.793 3.455,2.018 8.592,3.854l2.34,0.839l0.83,-2.344c1.817,-5.129 2.339,-7.708 2.434,-9.074c0.092,-0.048 0.181,-0.092 0.255,-0.128c1.093,-0.545 2.744,-1.366 2.819,-3.246c0.028,-0.675 -0.17,-1.949 -1.786,-2.92c-0.316,-0.19 -0.739,-0.476 -1.236,-0.812c-2.245,-1.513 -6.026,-4.062 -9.421,-4.405c-1.145,-0.115 -2.246,0.023 -3.228,0.535c-3.282,-9.768 -20.617,-17.802 -24.212,-19.375c0.245,-6.485 0.691,-13.431 1.134,-20.292c0.747,-11.548 1.452,-22.456 1.148,-30.479c-0.621,-16.383 -13.791,-24.935 -37.698,-40.459c-6.32,-4.105 -13.484,-8.757 -21.336,-14.159c-10.029,-6.898 -20.506,-10.865 -31.354,-11.893c6.413,-2.404 20.068,-6.263 31.587,-1.093c-1.901,4.223 3.021,9.58 5.555,12.33c0.406,0.444 0.755,0.82 0.988,1.102c1.204,1.455 2.493,1.456 3.154,1.328c1.849,-0.355 2.412,-2.113 2.786,-3.275c0.025,-0.08 0.057,-0.177 0.089,-0.276c1.338,-0.301 3.812,-1.215 8.615,-3.801l2.19,-1.177l-1.185,-2.185c-2.593,-4.784 -4.159,-6.899 -5.11,-7.884c0.026,-0.101 0.053,-0.196 0.076,-0.275c0.327,-1.176 0.823,-2.952 -0.523,-4.267c-0.483,-0.472 -1.562,-1.179 -3.366,-0.629c-0.352,0.108 -0.848,0.231 -1.431,0.375c-2.625,0.654 -7.052,1.755 -9.579,4.048c-0.826,0.749 -1.443,1.627 -1.733,2.657c-8.515,-3.707 -17.932,-2.808 -24.39,-1.367c-6.931,1.546 -11.852,3.939 -12.252,4.136c-4.691,-0.092 -9.448,0.354 -14.266,1.343c5.868,-3.083 15.655,-8.544 20.865,-13.223c2.789,4.01 10.064,1.88 13.754,0.791c0.576,-0.168 1.068,-0.316 1.425,-0.4c1.837,-0.438 2.407,-1.594 2.586,-2.243c0.497,-1.816 -0.831,-3.098 -1.708,-3.946c-0.061,-0.058 -0.134,-0.128 -0.208,-0.201c0.321,-1.333 0.594,-3.957 0.396,-9.409l-0.087,-2.485l-2.486,0.098c-5.435,0.213 -8.026,0.684 -9.329,1.101c-0.079,-0.068 -0.153,-0.135 -0.214,-0.189c-0.91,-0.814 -2.284,-2.043 -4.058,-1.416c-0.638,0.224 -1.748,0.88 -2.052,2.74c-0.059,0.364 -0.169,0.863 -0.295,1.45c-0.574,2.645 -1.541,7.103 -0.602,10.381c0.269,0.937 0.694,1.778 1.328,2.452c-7.484,6.585 -24.771,15.058 -24.959,15.15c-0.356,0.175 -0.555,0.534 -0.55,0.906c-2.77,0.825 -5.558,1.822 -8.365,2.997c-18.611,7.794 -37.836,23.455 -55.595,45.293c-8.859,10.892 -13.443,22.998 -15.334,35.67c-0.13,0.226 -0.163,0.479 -0.103,0.721c-0.517,3.671 -0.819,7.386 -0.927,11.135c-0.086,0.259 -0.096,0.46 -0.087,0.566c0.007,0.081 0.038,0.152 0.063,0.226c-0.422,19.405 4.061,39.611 8.25,58.485c1.257,5.662 2.444,11.01 3.521,16.368c3.31,16.451 10.626,27.421 20.156,36.474c-2.57,0.243 -7.419,0.139 -12.613,-2.877c-7.933,-4.606 -13.786,-14.065 -17.403,-28.11c0.032,-0.041 0.066,-0.076 0.097,-0.119c4.759,-1.911 3.749,-9.71 3.242,-13.611c-0.076,-0.599 -0.144,-1.106 -0.172,-1.472c-0.143,-1.882 -1.194,-2.629 -1.809,-2.906c-1.714,-0.776 -3.188,0.333 -4.165,1.067c-0.067,0.05 -0.147,0.111 -0.231,0.173c-1.267,-0.527 -3.814,-1.209 -9.229,-1.871l-2.468,-0.301l-0.295,2.468c-0.644,5.403 -0.586,8.034 -0.378,9.388c-0.08,0.065 -0.156,0.129 -0.221,0.181c-0.947,0.771 -2.377,1.934 -2.036,3.787c0.122,0.662 0.594,1.861 2.386,2.454c0.349,0.115 0.824,0.302 1.385,0.521c2.519,0.982 6.771,2.637 10.157,2.224c0.737,-0.09 1.431,-0.282 2.059,-0.596c3.782,14.113 9.875,23.696 18.135,28.467c4.512,2.607 8.741,3.218 11.719,3.218c1.729,0 3.021,-0.205 3.718,-0.347c1.003,0.902 2.029,1.786 3.074,2.657c-6.505,2.916 -20.296,7.922 -25.898,4.834c1.247,-3.766 -1.891,-9.028 -3.601,-11.882c-0.31,-0.517 -0.575,-0.957 -0.747,-1.28c-0.883,-1.668 -2.146,-1.932 -2.819,-1.942c-1.882,-0.026 -2.791,1.579 -3.393,2.643c-0.041,0.072 -0.09,0.16 -0.142,0.25c-1.372,0.023 -3.979,0.416 -9.208,1.973l-2.383,0.711l0.717,2.38c1.568,5.21 2.673,7.598 3.404,8.756c-0.048,0.091 -0.091,0.181 -0.13,0.255c-0.56,1.085 -1.407,2.721 -0.353,4.286c0.375,0.558 1.288,1.468 3.168,1.295c0.366,-0.033 0.876,-0.052 1.477,-0.075c2.703,-0.106 7.261,-0.289 10.2,-2.02c1.334,-0.788 2.335,-1.893 2.675,-3.459c0.054,-0.055 0.09,-0.117 0.141,-0.173c1.57,0.871 3.575,1.228 5.799,1.228c8.456,0 20.047,-5.11 22.803,-6.382c5.2,4.177 10.851,8.075 16.738,12.131c9.216,6.35 18.747,12.917 28.098,21.586c12.257,11.363 27.733,14.658 41.566,14.658c2.757,0 5.445,-0.136 8.033,-0.361c0.007,0 0.013,0.003 0.013,0.003c0.02,0 0.033,-0.008 0.047,-0.008c2.354,-0.206 4.627,-0.482 6.777,-0.814c20.562,-3.16 39.446,-11.849 50.263,-18.926c12.467,-8.159 26.23,-24.957 37.695,-42.175c1.844,5.295 6.733,21.264 2.341,30.549c-0.356,-0.093 -0.73,-0.146 -1.124,-0.155c-4.273,-2.834 -10.123,2.423 -13.049,5.052c-0.449,0.404 -0.827,0.747 -1.113,0.977c-1.469,1.186 -1.487,2.475 -1.368,3.14c0.335,1.851 2.084,2.436 3.241,2.823c0.081,0.027 0.177,0.059 0.276,0.093c0.284,1.34 1.167,3.827 3.695,8.661l1.152,2.204l2.199,-1.159c4.814,-2.535 6.95,-4.074 7.945,-5.014c0.1,0.028 0.195,0.056 0.276,0.079c1.17,0.343 2.941,0.86 4.273,-0.472c0.476,-0.476 1.196,-1.545 0.667,-3.356c-0.102,-0.354 -0.218,-0.85 -0.357,-1.435c-0.621,-2.634 -1.669,-7.074 -3.931,-9.628c-0.311,-0.352 -0.648,-0.661 -1.007,-0.931c5.318,-11.183 -1.531,-30.29 -2.751,-33.495c1.496,-2.287 2.949,-4.576 4.351,-6.847c0.226,4.86 2.354,13.121 13.083,18.667c-3.592,3.089 -1.113,10.067 0.159,13.632c0.203,0.569 0.377,1.049 0.482,1.401c0.539,1.809 1.726,2.315 2.385,2.456c1.84,0.393 3.045,-1.003 3.843,-1.928c0.055,-0.064 0.121,-0.14 0.189,-0.219c1.349,0.245 3.985,0.371 9.416,-0.134l2.476,-0.23l-0.237,-2.475c-0.52,-5.415 -1.135,-7.975 -1.626,-9.253c0.063,-0.081 0.125,-0.159 0.177,-0.224c0.761,-0.953 1.912,-2.395 1.184,-4.133c-0.259,-0.621 -0.976,-1.693 -2.852,-1.89c-0.366,-0.039 -0.869,-0.121 -1.464,-0.215c-2.671,-0.424 -7.177,-1.138 -10.398,-0.014c-0.99,0.345 -1.84,0.884 -2.496,1.638c-14.907,-7.459 -12.285,-20.031 -12.156,-20.606c0.003,-0.013 -0.001,-0.025 0.001,-0.038c9.299,-15.535 15.931,-29.75 17.121,-36.303c1.758,-9.691 0.031,-27.927 -1.493,-44.016c-0.99,-10.455 -1.924,-20.331 -1.595,-25.356c0.612,-9.337 -2.408,-16.35 -2.537,-16.645c-0.008,-0.016 -0.021,-0.026 -0.029,-0.041c-0.008,-0.016 -0.008,-0.034 -0.016,-0.05c-1.907,-3.361 -3.055,-6.257 -3.956,-9.248c10.543,-3.181 12.01,-13.32 12.087,-22.405c5.571,-2.178 14.684,-9.68 17.031,-15.051c0.22,-0.501 -0.009,-1.086 -0.511,-1.305" style="fill:#231f20;fill-rule:nonzero;"/></svg>