<?xml version="1.0" encoding="UTF-8" standalone="no"?><!DOCTYPE svg PUBLIC "-//W3C//DTD SVG 1.1//EN" "http://www.w3.org/Graphics/SVG/1.1/DTD/svg11.dtd"><svg width="100%" height="100%" viewBox="0 0 117 615" version="1.1" xmlns="http://www.w3.org/2000/svg" xmlns:xlink="http://www.w3.org/1999/xlink" xml:space="preserve" xmlns:serif="http://www.serif.com/" style="fill-rule:evenodd;clip-rule:evenodd;stroke-linejoin:round;stroke-miterlimit:2;"><path d="M115.761,486.385c-0.704,0.078 -1.464,0.166 -2.267,0.258c-5.469,0.632 -14.041,1.617 -17.964,0.703c-0.682,-0.615 -1.427,-1.232 -2.241,-1.848c0,-0.001 -0.001,-0.001 -0.001,-0.001c-0.018,-0.014 -0.035,-0.027 -0.053,-0.041c-3.063,-2.309 -6.427,-4.149 -8.437,-5.249c-0.822,-0.45 -1.532,-0.839 -1.788,-1.024c-1.75,-1.277 -10.929,-9.473 -11.021,-9.556c-0.192,-0.173 -0.44,-0.236 -0.678,-0.209c-0.098,-0.606 -0.247,-1.183 -0.484,-1.724c-3.813,-8.692 -10.264,-11.145 -12.355,-11.729c-0.59,-7.176 -2.153,-13.946 -3.523,-18.794c-0.005,-0.018 -0.008,-0.037 -0.015,-0.054c-1.144,-4.038 -2.143,-6.725 -2.321,-7.19c-0.939,-4.174 1.356,-7.034 4.014,-10.344c3.744,-4.661 7.988,-9.944 2.88,-19.822c-2.011,-3.887 -3.577,-7.106 -4.834,-10.187c0.192,-0.159 0.322,-0.39 0.323,-0.659c0.001,-0.091 0.049,-4.161 0.806,-9.45c1.801,-0.853 8.829,-4.266 14.265,-8.089c5.106,-3.59 12.206,-7.08 14.478,-8.164c2.168,2.855 7.762,2.909 10.768,2.934c0.533,0.004 0.985,0.007 1.31,0.026c0.095,0.006 0.188,0.009 0.276,0.009c1.475,0 2.186,-0.765 2.486,-1.24c0.887,-1.408 0.094,-2.832 -0.43,-3.774c-0.036,-0.065 -0.08,-0.142 -0.124,-0.224c0.614,-1.044 1.52,-3.191 2.754,-7.849l0.562,-2.123l-2.125,-0.556c-4.648,-1.216 -6.963,-1.453 -8.169,-1.467c-0.048,-0.077 -0.093,-0.152 -0.131,-0.215c-0.56,-0.921 -1.398,-2.338 -3.069,-2.239c-0.594,0.026 -1.702,0.294 -2.436,1.791c-0.143,0.292 -0.364,0.684 -0.622,1.149c-1.689,3.026 -5.058,9.07 -1.821,12.204c-2.334,1.115 -9.517,4.65 -14.715,8.304c-4.551,3.201 -10.261,6.117 -12.926,7.419c1.092,-6.382 3.23,-13.902 7.42,-18.384c5.531,-5.916 8.134,-9.85 9.314,-11.977c0.16,0.017 0.321,0.047 0.479,0.047c3.591,0 7.009,-4.453 8.842,-6.84c0.324,-0.423 0.598,-0.783 0.809,-1.029c1.084,-1.267 0.891,-2.389 0.68,-2.946c-0.59,-1.556 -2.204,-1.781 -3.272,-1.93c-0.073,-0.01 -0.161,-0.022 -0.252,-0.036c-0.465,-1.119 -1.633,-3.135 -4.611,-6.924l-1.356,-1.728l-1.723,1.361c-3.771,2.98 -5.377,4.663 -6.09,5.641c-0.09,-0.009 -0.178,-0.018 -0.251,-0.026c-1.071,-0.108 -2.694,-0.272 -3.635,1.101c-0.336,0.491 -0.789,1.536 -0.036,3.024c0.146,0.29 0.327,0.703 0.542,1.19c1.33,3.01 3.92,8.875 7.987,8.849c-1.248,2.109 -3.772,5.75 -8.707,11.027c-6.956,7.442 -8.552,22.089 -8.919,28.277c-2.814,-8.266 -3.733,-17.001 -5.402,-36.708c-0.318,-3.757 -0.332,-7.111 0.087,-10.194c0.03,-0.095 -0.085,-0.192 -0.085,-0.288l0,-0.106c0.876,-6.163 3.092,-11.232 5.108,-16.184c4.098,-10.061 7.776,-18.948 0.381,-33.881c2.06,-1.95 10.963,-10.054 21.743,-15.695c1.133,1.452 3.035,1.926 5.06,1.926c2.457,0 5.121,-0.688 6.869,-1.141c0.517,-0.133 0.958,-0.247 1.278,-0.313c1.634,-0.333 2.174,-1.336 2.35,-1.904c0.492,-1.59 -0.641,-2.761 -1.39,-3.535c-0.051,-0.053 -0.114,-0.118 -0.177,-0.185c0.323,-1.167 0.642,-3.475 0.627,-8.295l-0.007,-2.196l-2.196,0.013c-4.805,0.029 -7.105,0.368 -8.269,0.699c-0.066,-0.063 -0.13,-0.123 -0.183,-0.174c-0.779,-0.745 -1.962,-1.875 -3.543,-1.369c-0.568,0.18 -1.567,0.725 -1.889,2.36c-0.063,0.319 -0.175,0.756 -0.304,1.272c-0.772,3.06 -2.228,8.884 0.485,11.557c-10.18,5.43 -18.588,12.911 -21.217,15.359c-0.182,-0.342 -0.365,-0.685 -0.559,-1.035c1.368,-2.377 7.377,-13.451 5.54,-21.517c-1.887,-8.295 0.284,-15.417 0.306,-15.489c0.004,-0.015 0.001,-0.03 0.004,-0.046c0.418,0.128 0.842,0.194 1.27,0.194c3.409,0 7.057,-3.688 9.062,-5.715c0.375,-0.38 0.692,-0.702 0.933,-0.922c1.233,-1.121 1.183,-2.26 1.042,-2.838c-0.391,-1.617 -1.964,-2.042 -3.005,-2.323c-0.072,-0.019 -0.158,-0.042 -0.247,-0.067c-0.321,-1.169 -1.23,-3.315 -3.71,-7.447l-1.131,-1.883l-1.879,1.136c-4.113,2.486 -5.916,3.954 -6.745,4.835c-0.09,-0.02 -0.175,-0.04 -0.247,-0.056c-1.05,-0.24 -2.638,-0.606 -3.744,0.638c-0.396,0.446 -0.975,1.427 -0.414,2.995c0.11,0.306 0.237,0.738 0.39,1.247c0.936,3.133 2.759,9.194 6.739,9.762c-0.16,0.517 -2.298,7.728 -0.331,16.368c1.507,6.621 -3.019,15.944 -4.855,19.353c-0.637,-1.073 -1.318,-2.171 -2.064,-3.304c-18.842,-28.656 -6.895,-55.037 0.243,-70.798c0.761,-1.68 1.465,-3.236 2.07,-4.657c2.188,-5.139 1.228,-11.596 -1.125,-18.274c0.326,-1.781 3.057,-12.415 21.466,-13.723c-0.402,4.046 5.171,7.185 8.039,8.798c0.465,0.261 0.859,0.481 1.134,0.655c0.676,0.428 1.277,0.57 1.778,0.57c0.541,0 1.111,-0.166 1.382,-0.316c1.457,-0.805 1.593,-2.434 1.593,-3.513l0,-0.255c0.876,-0.619 2.721,-2.063 6.05,-5.551l1.443,-1.588l-1.629,-1.512c-3.486,-3.308 -5.397,-4.658 -6.465,-5.225c-0.005,-0.091 -0.018,-0.18 -0.022,-0.254c-0.044,-1.077 -0.119,-2.704 -1.611,-3.441c-0.535,-0.264 -1.638,-0.563 -3.001,0.395c-0.267,0.187 -0.653,0.425 -1.106,0.709c-2.699,1.689 -7.857,4.924 -7.65,8.778c-15.456,1.086 -20.684,8.72 -22.387,12.854c-0.173,-0.434 -0.352,-0.869 -0.535,-1.303c0.576,-2.071 4.465,-14.785 16.039,-26.243c11.037,-10.925 10.685,-14.589 10.43,-17.265c-0.003,-0.029 -0.004,-0.053 -0.007,-0.081c4.057,0.479 7.269,-5.081 8.915,-7.938c0.266,-0.463 0.49,-0.854 0.668,-1.129c0.907,-1.397 0.569,-2.485 0.286,-3.009c-0.79,-1.466 -2.419,-1.476 -3.497,-1.483c-0.074,-0.001 -0.163,-0.001 -0.256,-0.003c-0.608,-1.048 -2.032,-2.892 -5.483,-6.257l-1.572,-1.533l-1.529,1.576c-3.345,3.449 -4.714,5.326 -5.293,6.389c-0.092,0.003 -0.18,0.006 -0.253,0.008c-1.078,0.034 -2.707,0.085 -3.459,1.57c-0.269,0.531 -0.581,1.627 0.361,3.003c0.185,0.27 0.42,0.657 0.699,1.114c1.632,2.676 4.737,7.762 8.513,7.762c0.048,0 0.099,-0.009 0.148,-0.011c0.006,0.063 0.009,0.127 0.015,0.19c0.223,2.325 0.528,5.512 -9.918,15.852c-9.972,9.871 -14.341,20.44 -15.885,25.033c-2.47,-5.41 -5.484,-10.74 -8.129,-15.414c-2.604,-4.603 -4.853,-8.578 -5.457,-10.794c-0.956,-3.508 2.282,-11.004 5.415,-18.255c3.824,-8.852 7.779,-18.006 5.924,-23.168c-0.112,-0.312 -0.235,-0.644 -0.354,-0.97c0.744,-1.614 5.579,-10.393 25.309,-17.896c0.016,-0.007 0.027,-0.021 0.043,-0.028c1.014,3.469 6.317,5.443 9.154,6.497c0.5,0.186 0.923,0.341 1.223,0.47c0.536,0.233 1.009,0.32 1.418,0.32c0.757,0 1.293,-0.3 1.597,-0.537c1.313,-1.022 1.054,-2.631 0.882,-3.695c-0.012,-0.073 -0.026,-0.161 -0.041,-0.252c0.933,-0.773 2.515,-2.484 5.26,-6.447l1.25,-1.804l-1.808,-1.246c-3.957,-2.725 -6.036,-3.765 -7.179,-4.158c-0.019,-0.09 -0.036,-0.177 -0.051,-0.249c-0.213,-1.057 -0.535,-2.654 -2.123,-3.15c-0.568,-0.176 -1.7,-0.302 -2.901,0.856c-0.235,0.226 -0.328,0.523 -0.73,0.872c-2.624,2.278 -8.228,6.829 -5.6,10.883l0,0.014c-0.876,-0.042 -0.593,-0.05 -0.767,0.016c-6.477,2.464 -11.523,5.058 -15.257,7.517c1.447,-3.144 3.384,-7.785 3.996,-10.628c0.192,0.025 0.349,0.04 0.536,0.04c3.801,-0.001 6.847,-5.164 8.456,-7.874c0.271,-0.458 0.492,-0.848 0.672,-1.119c0.925,-1.386 0.596,-2.479 0.32,-3.006c-0.771,-1.475 -2.401,-1.506 -3.478,-1.527c-0.075,-0.001 -0.165,-0.003 -0.258,-0.005c-0.594,-1.056 -1.995,-2.917 -5.405,-6.326l-1.552,-1.552l-1.548,1.556c-3.389,3.407 -4.782,5.267 -5.374,6.322c-0.092,0.002 -0.18,0.004 -0.254,0.005c-1.078,0.021 -2.706,0.052 -3.478,1.527c-0.275,0.527 -0.6,1.62 0.324,3.006c0.181,0.271 0.41,0.661 0.682,1.119c1.612,2.72 4.699,7.887 8.513,7.854c-0.749,2.921 -3.231,8.647 -5.19,12.674c-4.186,3.202 -6.37,6.012 -7.451,7.763c-0.033,-0.088 -0.064,-0.171 -0.097,-0.26c-3.4,-9.105 -8.057,-21.576 -5.116,-30.791c0.928,-2.906 1.231,-5.772 1.103,-8.477c0.753,-1.502 5.211,-10.083 10.552,-14.015c1.026,1.074 2.475,1.459 4.051,1.459c2.763,0 5.918,-1.183 7.886,-1.921c0.5,-0.187 0.925,-0.348 1.237,-0.447c1.589,-0.503 2.019,-1.557 2.133,-2.142c0.322,-1.631 -0.928,-2.676 -1.756,-3.367c-0.057,-0.048 -0.125,-0.104 -0.195,-0.164c0.197,-1.195 0.27,-3.523 -0.253,-8.316l-0.239,-2.182l-2.182,0.244c-4.774,0.535 -7.026,1.114 -8.148,1.565c-0.073,-0.055 -0.143,-0.109 -0.202,-0.154c-0.853,-0.659 -2.142,-1.655 -3.667,-0.988c-0.546,0.239 -1.483,0.887 -1.63,2.547c-0.029,0.325 -0.094,0.772 -0.168,1.299c-0.445,3.127 -1.28,9.081 1.71,11.448c-4.156,3.236 -7.647,8.79 -9.471,12.042c-1.098,-6.367 -4.439,-11.431 -7.186,-13.303c-4.339,-4.349 -6.124,-7.871 -5.301,-10.466c1.332,-4.201 9.489,-5.611 13.409,-6.288c4.658,-0.805 11.066,-4.956 15.571,-8.251c0.328,0.16 0.674,0.296 1.061,0.371c0.913,0.862 2.025,1.2 3.218,1.2c3.11,0 6.77,-2.303 8.897,-3.64c0.451,-0.284 0.832,-0.526 1.118,-0.686c1.454,-0.811 1.664,-1.931 1.66,-2.527c-0.014,-1.664 -1.449,-2.435 -2.398,-2.946c-0.066,-0.035 -0.144,-0.077 -0.225,-0.121c-0.047,-1.209 -0.444,-3.505 -1.921,-8.095l-0.673,-2.089l-2.088,0.678c-4.571,1.486 -6.659,2.505 -7.666,3.173c-0.083,-0.039 -0.163,-0.079 -0.229,-0.11c-0.969,-0.474 -2.431,-1.192 -3.791,-0.23c-0.486,0.343 -1.274,1.167 -1.084,2.824c0.037,0.324 0.063,0.777 0.096,1.31c0.163,2.652 0.458,7.325 2.576,9.764c-4.339,3.142 -10.253,6.929 -14.42,7.649c-1.806,0.312 -4.222,0.734 -6.59,1.445c0.017,-2.116 -0.09,-8.751 -1.869,-15.614c3.636,-0.307 6.561,-5.219 8.118,-7.843c0.271,-0.459 0.501,-0.849 0.681,-1.12c0.925,-1.387 0.6,-2.479 0.325,-3.007c-0.772,-1.474 -2.4,-1.505 -3.478,-1.527c-0.074,0 -0.164,-0.002 -0.256,-0.005c-0.594,-1.055 -1.994,-2.916 -5.404,-6.325l-1.552,-1.553l-1.549,1.557c-3.388,3.407 -4.782,5.267 -5.373,6.321c-0.092,0.003 -0.18,0.005 -0.254,0.005c-1.078,0.022 -2.707,0.053 -3.478,1.527c-0.276,0.528 -0.6,1.62 0.324,3.007c0.181,0.271 0.41,0.661 0.682,1.12c1.732,2.922 5.162,8.677 9.382,7.754c2.106,7.789 1.955,15.655 1.939,16.292c-2.972,1.12 -5.589,2.802 -6.429,5.452c-1.054,3.323 0.837,7.341 5.78,12.281c0.021,0.022 0.049,0.03 0.072,0.048c0.024,0.02 0.038,0.047 0.065,0.064c3.786,2.497 9.118,12.576 5.809,22.941c-1.291,4.046 -1.221,8.607 -0.461,13.224c-4.368,-2.917 -15.876,-11.301 -17.312,-19.495c0.107,-0.106 0.214,-0.213 0.313,-0.333c4.305,-1.407 3.869,-8.339 3.652,-11.807c-0.033,-0.532 -0.063,-0.983 -0.066,-1.309c-0.017,-1.666 -0.9,-2.386 -1.426,-2.666c-1.464,-0.784 -2.829,0.106 -3.733,0.697c-0.063,0.04 -0.136,0.088 -0.214,0.138c-1.084,-0.537 -3.29,-1.287 -8.028,-2.185l-2.157,-0.409l-0.404,2.158c-0.881,4.723 -0.985,7.045 -0.881,8.25c-0.074,0.053 -0.146,0.105 -0.205,0.148c-0.88,0.624 -2.209,1.566 -2.016,3.219c0.07,0.592 0.416,1.677 1.96,2.303c0.302,0.122 0.711,0.315 1.195,0.541c2.063,0.965 5.481,2.563 8.401,2.563c0.713,0 1.394,-0.1 2.02,-0.323c2.344,9.97 16.901,19.372 19.347,20.891c1.225,5.771 3.36,11.51 5.16,16.33c0.448,1.201 0.873,2.338 1.254,3.398c1.62,4.511 -2.367,13.739 -5.884,21.882c-1.698,3.928 -3.347,7.747 -4.436,11.097c-0.7,-3.765 -2.144,-8.973 -5.02,-11.958c-3.924,-4.071 -5.984,-10.798 -6.045,-14.728c3.9,-0.711 5.628,-6.676 6.539,-9.773c0.15,-0.511 0.276,-0.945 0.385,-1.252c0.553,-1.573 -0.031,-2.55 -0.429,-2.993c-1.11,-1.241 -2.698,-0.868 -3.747,-0.621c-0.072,0.016 -0.16,0.037 -0.249,0.057c-0.836,-0.876 -2.653,-2.334 -6.797,-4.797l-1.888,-1.121l-1.116,1.89c-2.443,4.137 -3.334,6.285 -3.648,7.453c-0.088,0.025 -0.173,0.049 -0.245,0.068c-1.039,0.286 -2.61,0.719 -2.993,2.338c-0.137,0.579 -0.182,1.717 1.056,2.834c0.242,0.217 0.56,0.539 0.938,0.916c2.009,2.014 5.664,5.672 9.065,5.672c0.474,0 0.942,-0.082 1.4,-0.238c0.2,4.386 2.373,11.216 6.513,15.512c4.162,4.317 5.074,14.466 5.143,15.316c-0.209,1.43 -0.208,2.692 0.077,3.737c0.661,2.427 2.851,6.297 5.623,11.197c6.4,11.309 16.071,28.401 11.765,38.516c-0.599,1.41 -1.299,2.953 -2.054,4.62c-3.298,7.282 -7.592,16.788 -9.52,27.74c-0.546,-4.537 -1.902,-12.496 -4.971,-16.576c-3.014,-4.008 -4.049,-12.033 -4.381,-15.863c4.098,0.409 7.171,-5.245 8.751,-8.152c0.254,-0.469 0.468,-0.867 0.639,-1.145c0.871,-1.421 0.505,-2.499 0.21,-3.016c-0.826,-1.444 -2.456,-1.407 -3.533,-1.395c-0.074,0.002 -0.164,0.004 -0.255,0.005c-0.634,-1.033 -2.104,-2.841 -5.638,-6.119l-1.61,-1.493l-1.489,1.614c-3.257,3.533 -4.58,5.445 -5.131,6.521c-0.092,0.005 -0.181,0.01 -0.254,0.015c-1.076,0.061 -2.703,0.153 -3.418,1.656c-0.256,0.538 -0.539,1.641 0.437,2.992c0.191,0.264 0.434,0.645 0.723,1.092c1.684,2.611 4.871,7.552 8.602,7.552c0.07,0 0.141,-0.013 0.212,-0.017c0.333,3.978 1.413,12.386 4.736,16.805c4.034,5.364 4.94,18.863 4.949,18.998c0.027,0.439 0.378,0.772 0.804,0.807c-0.158,1.417 -0.275,2.855 -0.339,4.313c-3.036,-6.148 -9.78,-18.488 -16.652,-22.314c1.956,-3.294 -1.009,-8.556 -2.568,-11.313c-0.263,-0.464 -0.487,-0.856 -0.632,-1.149c-0.744,-1.492 -1.852,-1.752 -2.447,-1.775c-1.652,-0.091 -2.5,1.333 -3.054,2.258c-0.038,0.064 -0.084,0.14 -0.132,0.219c-1.218,-0.008 -3.524,0.278 -8.176,1.54l-2.12,0.575l0.581,2.118c1.271,4.634 2.192,6.769 2.812,7.806c-0.043,0.081 -0.085,0.159 -0.12,0.223c-0.52,0.946 -1.303,2.374 -0.406,3.776c0.3,0.471 1.008,1.225 2.466,1.225c0.097,0 0.198,-0.004 0.302,-0.011c0.325,-0.021 0.777,-0.026 1.308,-0.034c3.31,-0.048 9.756,-0.152 11.287,-3.963c8.078,4.405 16.531,22.658 17.512,24.824c0.227,10.04 3.015,20.907 10.404,32.145c12.536,19.066 8.586,28.763 4.013,39.992c-1.302,3.195 -2.679,6.577 -3.736,10.358c-0.783,-7.411 -2.531,-16.544 -3.37,-20.708c3.118,-0.762 6.078,-4.309 7.763,-6.332c0.341,-0.41 0.628,-0.758 0.85,-0.996c1.132,-1.223 0.985,-2.353 0.796,-2.918c-0.528,-1.578 -2.133,-1.867 -3.194,-2.058c-0.073,-0.013 -0.161,-0.029 -0.251,-0.046c-0.42,-1.136 -1.507,-3.197 -4.331,-7.103l-1.287,-1.78l-1.776,1.293c-3.885,2.826 -5.557,4.445 -6.307,5.392c-0.091,-0.012 -0.178,-0.024 -0.251,-0.034c-1.068,-0.15 -2.683,-0.378 -3.676,0.955c-0.357,0.477 -0.85,1.504 -0.158,3.019c0.136,0.295 0.299,0.715 0.495,1.21c1.277,3.233 3.833,9.703 8.324,9.139c0.406,0.191 0.815,0.306 1.225,0.364c1.056,5.229 3.855,19.815 3.79,27.063c-0.083,0.586 -0.155,1.183 -0.216,1.789c-7.843,-5.042 -17.093,-28.067 -19.309,-33.816c0.185,-0.144 0.365,-0.3 0.533,-0.481c4.378,-1.166 4.326,-8.114 4.3,-11.589c-0.003,-0.533 -0.008,-0.984 0.006,-1.308c0.077,-1.665 -0.765,-2.433 -1.274,-2.742c-1.421,-0.864 -2.832,-0.05 -3.767,0.489c-0.064,0.038 -0.141,0.082 -0.221,0.128c-1.054,-0.598 -3.216,-1.469 -7.893,-2.629l-2.132,-0.529l-0.523,2.133c-1.142,4.669 -1.374,6.983 -1.336,8.192c-0.076,0.049 -0.151,0.096 -0.213,0.135c-0.913,0.574 -2.291,1.441 -2.191,3.102c0.036,0.594 0.322,1.697 1.829,2.408c0.294,0.139 0.69,0.353 1.159,0.604c2.105,1.132 5.656,3.039 8.669,3.039c0.51,0 1.003,-0.055 1.472,-0.177c2.424,6.317 12.146,30.457 20.736,34.968c-0.133,2.21 -0.124,4.545 0.088,7.046c2.547,30.085 3.366,34.871 11.743,51.068c4.585,8.866 1.053,13.264 -2.688,17.921c-2.706,3.369 -5.503,6.851 -4.347,11.877c0.005,0.025 0.021,0.044 0.028,0.068c0.006,0.017 0.003,0.036 0.01,0.053c0.022,0.057 1.069,2.782 2.283,7.063c-0.099,1.479 -1.119,13.532 -7.843,15.864c-6.465,2.242 -8.367,9.998 -9.388,14.165c-0.257,1.047 -0.5,2.034 -0.692,2.384c-0.152,0.276 -0.89,0.77 -1.604,1.248c-1.029,0.69 -2.344,1.572 -3.715,2.843c-1.835,0.155 -10.552,1.159 -15.5,6.447c-0.331,0.353 -0.313,0.907 0.041,1.238c0.169,0.158 0.384,0.236 0.598,0.236c0.234,0 0.467,-0.093 0.64,-0.277c3.444,-3.681 9.144,-5.102 12.325,-5.629c-2.249,2.723 -4.381,6.737 -5.451,12.91c-3.503,0.691 -20.872,4.484 -22.624,12.146c-0.108,0.471 0.186,0.941 0.659,1.049c0.065,0.015 0.131,0.022 0.196,0.022c0.399,0 0.76,-0.275 0.853,-0.681c1.278,-5.59 14.28,-9.38 20.571,-10.681c-1.239,5.724 -4.108,6.738 -6.888,7.72c-3.462,1.222 -7.041,2.486 -6.182,11.969c0.041,0.455 0.423,0.798 0.871,0.798c0.027,0 0.053,-0.002 0.08,-0.004c0.482,-0.044 0.837,-0.47 0.793,-0.951c-0.736,-8.127 1.707,-8.98 5.047,-10.16c3.123,-1.104 7.407,-2.478 8.283,-10.283l0,-0.005c0,-0.019 -0.02,-0.035 -0.016,-0.053c1.803,-11.431 7.396,-15.182 10.406,-17.198c0.436,-0.292 0.801,-0.547 1.127,-0.795c1.398,3.07 3.592,8.92 2.57,11.595c-0.664,1.734 -1.671,3.167 -2.559,4.431c-1.186,1.689 -2.209,3.146 -2.008,4.765c0.056,0.443 0.433,0.767 0.868,0.767c0.036,0 0.072,-0.003 0.11,-0.007c0.479,-0.06 0.82,-0.498 0.759,-0.978c-0.117,-0.946 0.686,-2.091 1.704,-3.54c0.945,-1.348 2.017,-2.875 2.758,-4.812c1.522,-3.98 -2.035,-11.778 -2.98,-13.729c0.217,-0.564 0.412,-1.355 0.661,-2.367c1.009,-4.114 2.697,-10.999 8.26,-12.928c5.355,-1.857 7.55,-8.473 8.44,-13.046c1.025,4.282 1.98,9.395 2.372,14.712c0.521,7.083 -0.034,13.306 -1.652,18.495c-1.532,4.919 -3.031,9.883 -4.343,14.785c-2.165,0.938 -12.546,5.646 -16.819,11.61c-1.164,1.624 -2.215,3.546 -3.329,5.582c-3.29,6.014 -6.677,12.245 -13.378,11.626c-0.484,-0.047 -0.907,0.311 -0.952,0.793c-0.043,0.482 0.312,0.908 0.793,0.952c0.369,0.033 0.73,0.049 1.082,0.049c7.11,0 10.757,-6.665 13.991,-12.579c0.358,-0.654 0.709,-1.288 1.059,-1.91c0.025,0.016 0.043,0.041 0.071,0.055c1.059,0.523 3.947,2.379 4.579,4.645c0.282,1.013 0.102,2.003 -0.551,3.028c-3.521,5.52 -4.751,10.303 -3.465,13.469c0.138,0.339 0.466,0.545 0.812,0.545c0.11,0 0.221,-0.02 0.33,-0.064c0.447,-0.182 0.664,-0.693 0.481,-1.142c-1.051,-2.585 0.159,-6.911 3.318,-11.866c0.924,-1.448 1.181,-2.942 0.763,-4.441c-0.952,-3.408 -5.128,-5.562 -5.466,-5.732c0.423,-0.703 0.847,-1.379 1.285,-1.99c3.412,-4.76 11.383,-8.84 14.825,-10.446c-1.233,4.796 -2.264,9.519 -2.948,14.064c-0.044,0.116 -0.06,0.239 -0.051,0.36c-1.257,8.558 -1.271,16.48 0.935,23.081l0.388,1.158c0.079,0.712 0.649,7.181 -3.843,11.852c-1.933,2.011 -4.081,3.079 -5.975,4.022c-2.851,1.418 -5.542,2.757 -4.908,6.81c0.754,4.811 -4.873,10.522 -7.895,13.59c-0.275,0.279 -0.528,0.535 -0.754,0.769c-0.336,0.347 -0.327,0.902 0.021,1.238c0.17,0.165 0.389,0.246 0.609,0.246c0.229,0 0.457,-0.088 0.629,-0.266c0.222,-0.229 0.472,-0.484 0.743,-0.758c3.238,-3.288 9.269,-9.407 8.378,-15.09c-0.29,-1.854 0.28,-2.797 1.661,-3.708c0.779,2.083 2.445,7.273 1.47,11.367c-0.112,0.471 0.18,0.943 0.65,1.055c0.068,0.016 0.136,0.023 0.203,0.023c0.396,0 0.756,-0.27 0.851,-0.672c1.139,-4.785 -0.832,-10.599 -1.63,-12.654c0.242,-0.124 0.483,-0.247 0.752,-0.382c1.922,-0.956 4.314,-2.146 6.458,-4.376c2.593,-2.696 3.686,-5.865 4.126,-8.446c2.359,7.126 5.082,15.955 6.612,25.226c-1.475,0.982 -5.678,4.156 -6.848,9.134c-1.091,4.638 -2.768,6.852 -4.39,8.992c-0.284,0.377 -0.565,0.748 -0.841,1.127c-0.284,0.392 -0.197,0.94 0.195,1.224c0.156,0.113 0.336,0.166 0.514,0.166c0.27,0 0.538,-0.126 0.709,-0.362c0.268,-0.369 0.543,-0.731 0.82,-1.097c1.651,-2.179 3.522,-4.649 4.698,-9.65c0.875,-3.721 3.822,-6.373 5.444,-7.592c1.345,9.25 1.407,18.844 -1.342,27.544c-5.438,17.207 -2.058,20.558 -0.037,22.56c0.363,0.36 0.65,0.645 0.71,0.879c0.099,0.398 0.456,0.664 0.848,0.664c0.07,0 0.142,-0.009 0.213,-0.027c0.469,-0.117 0.755,-0.593 0.637,-1.061c-0.177,-0.709 -0.662,-1.19 -1.176,-1.7c-1.622,-1.607 -4.641,-4.6 0.475,-20.787c6.393,-20.225 -1.883,-44.825 -6.826,-59.524l-0.688,-2.049c-1.978,-5.922 -2.083,-13.02 -1.081,-20.73c3.331,3.333 12.185,12.825 11.424,18.853c-0.197,1.558 -0.276,3.048 -0.235,4.431c0.198,6.576 3.086,11.707 9.091,16.15c0.157,0.116 0.34,0.172 0.52,0.172c0.269,0 0.533,-0.123 0.705,-0.355c0.288,-0.389 0.206,-0.937 -0.183,-1.225c-5.211,-3.856 -7.876,-8.247 -8.322,-13.747c1.6,0.395 5.108,1.87 8.957,7.424c0.171,0.245 0.443,0.377 0.721,0.377c0.173,0 0.346,-0.05 0.499,-0.156c0.397,-0.276 0.496,-0.822 0.221,-1.219c-4.478,-6.458 -8.658,-7.908 -10.447,-8.23c0.002,-1.081 0.061,-2.21 0.211,-3.403c0.963,-7.631 -10.637,-19.111 -12.858,-21.232c1.214,-7.912 3.491,-16.399 6.043,-24.885c2.155,2.114 7.259,7.217 11.074,11.783c-0.227,1.328 -0.833,5.716 -0.205,11.716c-2.832,3.6 -6.201,7.423 -7.152,7.825c-0.422,0.021 -0.779,0.272 -0.871,0.685c-0.106,0.473 0.191,0.94 0.663,1.045c0.065,0.015 0.142,0.032 0.244,0.032c0.641,0 2.246,-0.706 7.43,-7.165c0.381,2.494 0.98,5.202 1.897,8.042c0.12,0.37 0.463,0.606 0.833,0.606c0.09,0 0.18,-0.013 0.27,-0.042c0.46,-0.148 0.713,-0.643 0.564,-1.103c-1.089,-3.37 -1.711,-6.569 -2.044,-9.426c0.005,-0.007 0.009,-0.014 0.015,-0.02c0.292,-0.376 0.225,-0.915 -0.143,-1.214c-0.366,-3.978 -0.183,-7.183 0.019,-9.094c1.493,1.928 2.619,3.653 2.999,4.864c1.633,5.217 6.511,13.96 13.252,16.662c0.107,0.043 0.217,0.063 0.326,0.063c0.347,0 0.676,-0.208 0.813,-0.55c0.18,-0.45 -0.038,-0.959 -0.488,-1.139c-6.131,-2.458 -10.757,-10.849 -12.232,-15.56c-1.603,-5.121 -14.264,-17.55 -16.691,-19.901c0.38,-1.244 0.765,-2.489 1.151,-3.731c1.586,-5.089 2.18,-11.114 1.795,-17.903c2.242,0.776 7.44,3.285 10.628,10.551c0.499,1.138 0.507,2.703 0.516,4.361c0.016,2.846 0.033,6.072 2.323,8.891c6.519,8.026 8.663,9.466 8.886,9.603c0.142,0.088 0.299,0.13 0.455,0.13c0.29,0 0.572,-0.144 0.739,-0.407c0.257,-0.404 0.138,-0.943 -0.264,-1.205c-0.084,-0.056 -2.133,-1.441 -8.456,-9.226c-1.901,-2.34 -1.916,-5.113 -1.93,-7.796c-0.003,-0.416 -0.006,-0.828 -0.016,-1.232c2.159,1.922 8.945,7.945 10.504,9.082c0.347,0.253 0.996,0.608 1.978,1.146c2.031,1.11 5.067,2.776 7.947,4.909c0.125,0.51 0.409,0.968 0.85,1.342c0.469,0.397 1.115,0.701 1.907,0.93c2.785,2.588 4.261,5.101 4.383,7.495c0.455,8.934 4.366,10.861 4.533,10.939c0.119,0.056 0.243,0.081 0.366,0.081c0.323,0 0.632,-0.183 0.784,-0.493c0.21,-0.43 0.03,-0.952 -0.396,-1.168c-0.031,-0.017 -3.142,-1.694 -3.537,-9.448c-0.117,-2.285 -1.205,-4.606 -3.238,-6.937c0.745,0.057 1.551,0.083 2.41,0.083c3.758,0 8.539,-0.494 13.729,-1.093c0.799,-0.092 1.557,-0.181 2.258,-0.258c0.481,-0.053 0.828,-0.486 0.774,-0.966c-0.053,-0.48 -0.478,-0.821 -0.966,-0.775" style="fill:#231f20;fill-rule:nonzero;"/></svg>