<?xml version="1.0" encoding="UTF-8" standalone="no"?><!DOCTYPE svg PUBLIC "-//W3C//DTD SVG 1.1//EN" "http://www.w3.org/Graphics/SVG/1.1/DTD/svg11.dtd"><svg width="100%" height="100%" viewBox="0 0 133 293" version="1.1" xmlns="http://www.w3.org/2000/svg" xmlns:xlink="http://www.w3.org/1999/xlink" xml:space="preserve" xmlns:serif="http://www.serif.com/" style="fill-rule:evenodd;clip-rule:evenodd;stroke-linejoin:round;stroke-miterlimit:2;"><g><path d="M122.969,126.426c-0.049,0.003 -0.108,0 -0.163,0c-4.13,0 -9.857,1.067 -10.098,3.115c-0.09,0.763 -0.738,1.324 -1.488,1.324c-0.058,0 -0.117,-0.003 -0.177,-0.01c-0.823,-0.098 -1.41,-0.843 -1.314,-1.665c0.107,-0.91 1.133,-5.224 10.922,-5.717c-6.481,-5.149 -12.886,-12.156 -14.294,-15.358c-1.343,-3.056 -4.275,-7.263 -4.841,-8.063c-0.667,-0.585 -1.309,-1.063 -1.926,-1.432c-0.358,-0.044 -0.692,-0.216 -0.936,-0.488c-1.109,-0.487 -2.126,-0.59 -3.039,-0.306c-2.888,0.895 -4.615,5.471 -5.058,7.226c-0.13,0.798 -2.115,14.122 6.852,27.967c0.472,0.609 5.174,6.68 6.362,8.05c2.046,2.358 2.517,7.697 1.453,10.251c-0.045,0.108 -0.102,0.21 -0.17,0.304c-0.025,0.036 -2.689,3.781 -4.616,10.346c-1.775,6.045 -3.274,15.796 -0.333,27.921c0.195,0.805 -0.299,1.615 -1.103,1.811c-0.805,0.194 -1.617,-0.299 -1.812,-1.104c-2.681,-11.055 -1.952,-20.264 -0.293,-27.116c-8.28,3.427 -33.219,15.073 -41.411,33.959c-0.245,0.566 -0.796,0.904 -1.376,0.904c-0.199,0 -0.401,-0.04 -0.596,-0.125c-0.76,-0.329 -1.108,-1.212 -0.778,-1.972c5.431,-12.524 17.639,-21.832 26.924,-27.435c8.519,-5.14 16.019,-8.126 18.265,-8.972c1.808,-5.581 4.021,-8.994 4.582,-9.808c0.582,-1.666 0.168,-5.651 -1.001,-6.998c-0.987,-1.138 -4.098,-5.126 -5.635,-7.105c-7.085,4.93 -44.331,31.125 -50.528,41.212c-0.282,0.461 -0.775,0.715 -1.279,0.715c-0.268,0 -0.539,-0.072 -0.783,-0.223c-0.705,-0.433 -0.926,-1.356 -0.493,-2.062c6.585,-10.719 44.045,-37.023 51.366,-42.104c-0.375,-0.616 -0.73,-1.23 -1.066,-1.84c-9.741,-0.935 -14.392,-17.501 -15.615,-27.204c-0.026,-0.2 -0.064,-0.406 -0.099,-0.61c-2.728,0.722 -8.894,2.543 -15.044,5.677c-0.218,0.11 -0.45,0.163 -0.679,0.163c-0.547,0 -1.073,-0.299 -1.338,-0.819c-0.376,-0.738 -0.082,-1.641 0.655,-2.017c6.453,-3.287 12.769,-5.154 15.632,-5.905c-3.237,-9.232 -13.565,-20.214 -13.682,-20.339c-0.57,-0.601 -0.544,-1.554 0.056,-2.124c0.601,-0.569 1.551,-0.546 2.12,0.055c0.529,0.558 11.986,12.854 14.751,23.131c0.003,0.009 -0.107,0.018 -0.107,0.028l0,0.009c0.8,0.8 0.497,1.591 0.594,2.361c1.076,8.536 4.804,20.759 10.849,23.866c-5.53,-12.485 -3.691,-22.915 -3.596,-23.428c0.006,-0.029 0.026,-0.057 0.032,-0.086c0.08,-0.319 1.988,-7.84 7.103,-9.425c0.897,-0.278 1.824,-0.358 2.769,-0.246c-0.722,-2.701 -1.561,-6.223 -1.77,-7.106c-0.953,-2.213 -1.442,-3.055 -2.32,-4.563c-1.198,-2.058 -3.01,-5.169 -7.391,-14.139c-6.997,-14.32 -15.552,-11.376 -15.638,-11.346c-0.153,0.057 -0.314,0.088 -0.476,0.092c-2.845,0.075 -5.159,1.1 -7.074,3.133c-4.501,4.777 -6.532,14.77 -6.037,29.701c0.032,0.981 0.068,1.954 0.102,2.914c0.369,10.185 0.474,16.055 -1.65,18.24c-0.584,0.604 -1.337,0.916 -2.139,0.912c-0.821,-0.006 -1.573,-0.343 -2.178,-0.974c-0.113,-0.118 -0.272,-0.284 -0.45,-0.543c-0.028,0.008 -0.053,0.021 -0.081,0.026c-0.115,0.024 -11.515,2.441 -17.81,6.364c-0.246,0.154 -0.521,0.228 -0.792,0.228c-0.5,0 -0.989,-0.25 -1.273,-0.707c-0.439,-0.702 -0.224,-1.627 0.478,-2.066c6.148,-3.831 16.268,-6.2 18.396,-6.67c-0.388,-1.787 -0.647,-4.519 -0.493,-8.748l0.005,-0.124c0.004,-0.133 0.035,-16.757 -2.474,-37.706c-1.194,-9.96 -2.847,-24.261 -4.054,-34.702c-0.827,-7.157 -1.541,-13.213 -1.605,-13.637c-0.324,-2.087 -1.68,-8.779 -5.552,-8.779l-0.011,0c-1.804,0 -3.193,0.428 -4.243,1.564c-2.209,2.386 -2.377,6.832 -2.256,8.368c0.005,0.056 0.005,0.081 0.004,0.138c-0.027,0.801 -2.734,80.278 -4.047,97.452c-0.546,7.135 -1.812,10.24 -4.236,10.401c-0.13,0.008 -0.258,0.003 -0.385,-0.009c-3.503,2.183 -11.082,7.039 -14.674,10.382c-0.29,0.269 -0.656,0.402 -1.022,0.402c-0.401,0 -0.802,-0.16 -1.097,-0.478c-0.565,-0.606 -0.53,-1.555 0.076,-2.119c3.453,-3.215 10.098,-7.567 13.99,-10.02c-1.973,-2.542 -3.076,-6.816 -3.088,-6.879c-0.664,-3.135 -4.813,-56.89 -4.948,-59.876c-0.085,-1.909 -1.679,-4.896 -3.131,-5.22c-1.017,-0.223 -2.058,1.495 -2.455,2.247c-3.713,7.047 -5.044,78.111 -1.674,89.456c1.7,5.726 2.732,15.649 3.646,25.928c4.57,0.647 24.615,1.443 51.91,-27.35c0.57,-0.602 1.52,-0.626 2.12,-0.056c0.6,0.569 0.626,1.518 0.056,2.119c-23.687,24.988 -42.103,28.546 -50.667,28.546c-1.278,0 -2.325,-0.08 -3.149,-0.179c0.065,0.74 0.129,1.48 0.193,2.218c0.841,9.751 1.637,18.962 2.858,25.102c2.105,10.583 10.449,23.008 15.436,30.432c1.439,2.143 2.575,3.834 3.171,4.918c0.103,0.187 0.199,0.439 0.292,0.718c3.701,0.894 19.349,4.471 27.136,3.073c0.821,-0.151 1.595,0.395 1.742,1.21c0.146,0.815 -0.396,1.594 -1.211,1.741c-1.417,0.255 -3.049,0.364 -4.798,0.364c-7.726,0 -17.785,-2.119 -22.199,-3.144c1.408,10.213 1.033,34.83 0.899,41.542c0.843,1.052 3.533,4.166 8.115,7.241c5.15,3.456 13.828,7.578 25.921,7.578c21.072,0 33.989,-15.751 36.245,-18.734c-2.182,-12.606 2.285,-33.099 4.966,-42.325c-4.356,2.813 -12.065,6.403 -23.059,6.403c-0.348,0 -0.696,-0.004 -1.051,-0.011c-0.828,-0.017 -1.485,-0.702 -1.468,-1.53c0.017,-0.828 0.717,-1.522 1.531,-1.468c15.859,0.328 24.77,-7.515 25.961,-8.636c1.886,-3.614 7.226,-12.39 17.515,-26.497c7.599,-10.419 10.372,-20.619 8.018,-29.496c-1.401,-5.282 -1.268,-24.385 -1.262,-25.195c0.006,-0.182 0.42,-14.045 -6.372,-18.535c-0.156,-0.103 -0.315,-0.219 -0.472,-0.325c-0.273,0.277 -0.651,0.45 -1.07,0.45m-39.483,-31.765c0.23,-0.194 5.717,-4.722 11.005,-2.699c0.773,0.295 1.161,1.162 0.865,1.936c-0.296,0.773 -1.165,1.159 -1.935,0.865c-3.608,-1.377 -7.965,2.16 -8.008,2.196c-0.28,0.235 -0.623,0.35 -0.963,0.35c-0.428,0 -0.853,-0.181 -1.15,-0.535c-0.531,-0.634 -0.449,-1.58 0.186,-2.113m41.724,37.876c0.63,-0.538 1.576,-0.463 2.114,0.166c0.538,0.63 0.463,1.577 -0.166,2.114c-0.166,0.142 -3.58,2.997 -8.8,2.997c-0.884,0 -1.821,-0.081 -2.803,-0.273c-0.813,-0.158 -1.344,-0.946 -1.186,-1.758c0.159,-0.814 0.949,-1.343 1.759,-1.185c5.372,1.047 9.045,-2.03 9.082,-2.061" style="fill-rule:nonzero;"/><path d="M115.678,42.749c-1.277,-8.239 -2.484,-16.028 -2.856,-22.261c-0.805,-13.512 -6.548,-20.484 -8.821,-20.484c-1.422,0 -2.588,0.078 -3.566,1.074c-2.126,2.167 -3.113,8.135 -2.932,17.741c0.372,19.745 -1.989,59.465 -2.012,59.863c-0.026,0.426 -0.231,0.799 -0.534,1.056c0.404,0.715 0.739,1.291 1.035,1.799c0.921,1.583 1.477,2.539 2.536,5.009c0.034,0.079 0.061,0.162 0.081,0.246c0.685,2.895 1.78,7.32 2.342,9.151c0.73,0.422 1.472,0.955 2.223,1.585c2.019,0.012 9.104,0.155 14.361,1.532c0.802,0.21 1.281,1.034 1.071,1.835c-0.176,0.673 -0.784,1.124 -1.45,1.124c-0.125,0 -0.253,-0.046 -0.38,-0.079c-3.62,-0.948 -8.336,-1.279 -11.298,-1.394c1.173,1.786 2.706,4.272 3.625,6.362c1.043,2.375 6.031,8.035 11.658,12.792c-0.083,-8.396 -0.383,-31.334 -1.301,-46.401c-0.62,-10.148 -2.299,-20.994 -3.782,-30.55" style="fill-rule:nonzero;"/></g></svg>