<?xml version="1.0" encoding="UTF-8" standalone="no"?><!DOCTYPE svg PUBLIC "-//W3C//DTD SVG 1.1//EN" "http://www.w3.org/Graphics/SVG/1.1/DTD/svg11.dtd"><svg width="100%" height="100%" viewBox="0 0 354 323" version="1.1" xmlns="http://www.w3.org/2000/svg" xmlns:xlink="http://www.w3.org/1999/xlink" xml:space="preserve" xmlns:serif="http://www.serif.com/" style="fill-rule:evenodd;clip-rule:evenodd;stroke-linejoin:round;stroke-miterlimit:2;"><g><path d="M343.49,27.971c-0.4,-0.713 -0.925,-1.193 -1.627,-1.482c-1.912,0.648 -7.303,2.345 -12.522,2.823c0.008,0.009 0.018,0.014 0.026,0.022c5.99,5.86 11.845,7.405 14.404,7.811c0.547,-2.535 1.06,-6.779 -0.281,-9.174" style="fill:#231f20;fill-rule:nonzero;"/><path d="M204.751,305.126c4.26,0.725 8.689,2.033 12.267,4.753c0.095,-0.011 0.19,-0.019 0.288,-0.014c2.379,0.138 11.699,2.547 17.805,4.181c-3.22,-2.942 -7.051,-4.86 -7.105,-4.887c-0.66,-0.327 -1.047,-1.032 -0.968,-1.764c0.08,-0.733 0.608,-1.338 1.323,-1.517c5.093,-1.269 12.175,-0.405 16.779,0.421c-5.737,-5.975 -13.064,-4.304 -19.115,-2.924c-3,0.684 -5.594,1.273 -7.647,0.835c-5.65,-1.208 -13.511,-12.905 -16.269,-17.263c-1.384,0.718 -3.161,1.405 -5.425,2.097c3.34,3.782 8.925,11.001 8.067,16.082" style="fill:#231f20;fill-rule:nonzero;"/><path d="M193.154,286.4c4.421,-1.177 6.943,-2.112 8.355,-3.119c0.077,-0.071 0.163,-0.133 0.253,-0.191c1.66,-1.323 1.519,-2.801 1.292,-5.119c-0.11,-1.116 -0.234,-2.381 -0.231,-3.843c0.007,-3.136 1.89,-6.35 5.592,-9.577c-13.366,3.723 -20.613,6.292 -23.931,11.48c0.016,3.862 0.979,6.697 2.885,8.427c2.237,2.031 5.202,1.979 5.785,1.942" style="fill:#231f20;fill-rule:nonzero;"/><path d="M180.757,307.094c-1.334,2.116 -4.521,1.633 -6.803,1.085c-1.724,-0.414 -3.105,-0.182 -4.221,0.709c-1.358,1.083 -2.118,2.927 -2.521,4.411c2.517,-0.339 6.771,-0.44 14.024,0.019c4.566,0.288 16.167,5.49 22.859,8.655c-2.375,-2.955 -6.133,-6.284 -8.8,-8.314c-0.54,-0.41 -0.795,-1.094 -0.658,-1.758c0.138,-0.663 0.645,-1.187 1.304,-1.348c3.611,-0.883 15.715,3.438 22.43,6.017c-4.436,-7.281 -13.982,-8.15 -21.205,-8.807c-1.194,-0.109 -2.312,-0.211 -3.32,-0.334c-4.047,-0.494 -7.579,-4.168 -10.495,-10.921c-1.427,-3.303 -2.341,-6.505 -2.778,-8.203c-0.883,1.535 -2.029,2.472 -3.456,2.828c-1.173,0.294 -2.378,0.115 -3.572,-0.372l5.76,10.201c0.807,1.024 2.823,3.958 1.452,6.132" style="fill:#231f20;fill-rule:nonzero;"/><path d="M172.934,234.195c-4.758,-0.547 -9.346,-1.638 -13.745,-3.303c-0.394,-0.149 -0.774,-0.311 -1.16,-0.466c-2.317,2.672 -9.198,10.121 -18.95,16.374c-3.141,2.014 -6.279,3.699 -9.4,5.064c21.006,8.753 38.064,-10.773 43.255,-17.669" style="fill:#231f20;fill-rule:nonzero;"/><path d="M154.64,228.935c-8.282,-3.993 -14.583,-9.51 -19.178,-14.735c-4.683,6.144 -20.555,25.891 -38.286,35.937c26.451,10.315 51.222,-14.315 57.464,-21.202" style="fill:#231f20;fill-rule:nonzero;"/><path d="M318.319,25.622c0.67,-1.063 3.426,0.059 3.79,0.285l0.489,0.304c3.61,1.657 12.117,-0.138 17.551,-1.917c0.005,-1.494 -0.183,-4.386 -1.439,-7.645c-2.422,-6.283 -7.496,-10.935 -15.079,-13.827c-8.935,-3.405 -16.655,-3.598 -22.95,-0.573c-6.771,3.256 -11.908,10.216 -15.267,20.687c-1.658,5.171 -8.144,23.536 -21.968,42.775c-13.384,18.624 -28.745,31.407 -45.659,37.996c-35.014,13.638 -100.256,54.307 -136.545,110.461l-16.863,33.603c4.545,3.735 9.848,5.322 15.769,4.715c22.525,-2.3 48.134,-34.656 52.999,-41.065c-5.188,-6.578 -7.585,-12.104 -7.778,-12.561c-0.378,-0.894 0.041,-1.924 0.934,-2.302c0.891,-0.379 1.923,0.039 2.303,0.932c0.089,0.208 8.811,20.266 29.692,29.249c0.009,0.005 0.018,0.008 0.026,0.013c0.704,0.302 1.419,0.593 2.151,0.869c14.872,5.611 32.103,4.388 51.286,-3.575c-2.579,0.216 -5.248,0.337 -8.023,0.337c-3.547,0 -7.253,-0.188 -11.129,-0.592c-0.965,-0.102 -1.667,-0.965 -1.566,-1.931c0.101,-0.965 0.967,-1.667 1.931,-1.566c30.226,3.157 49.879,-7.35 61.042,-16.72c5.224,-4.383 9.131,-8.935 11.896,-12.709c-11.782,8.357 -27.277,14.394 -39.722,15.431c-0.05,0.004 -0.099,0.006 -0.148,0.006c-0.904,0 -1.673,-0.694 -1.749,-1.611c-0.081,-0.968 0.638,-1.818 1.606,-1.898c12.993,-1.083 32.521,-8.559 45.626,-21.029c0.085,-0.101 0.179,-0.19 0.282,-0.267c8.409,-8.106 14.094,-18.293 13.558,-30.188c-1.341,-29.694 -28.087,-36.351 -29.225,-36.62c-0.944,-0.223 -1.53,-1.169 -1.308,-2.113c0.222,-0.944 1.163,-1.532 2.11,-1.309c0.304,0.07 30.472,7.488 31.934,39.883c0.391,8.649 -2.071,20.819 -14.59,32.842c-1.013,2.12 -6.313,12.412 -17.878,22.163c-7.807,6.584 -19.573,13.699 -35.912,16.726c-0.007,0.647 -0.367,1.267 -0.99,1.566c-14.098,6.771 -27.294,10.164 -39.45,10.164c-1.018,0 -2.028,-0.029 -3.031,-0.077c-2.804,4.033 -17.097,23.096 -36.565,23.096c-4.501,0 -9.276,-1.019 -14.251,-3.478c-0.306,-0.152 -0.545,-0.383 -0.711,-0.654c-5.098,1.763 -10.136,2.657 -15.057,2.657c-5.927,0 -11.684,-1.283 -17.169,-3.863c-0.04,-0.019 -0.074,-0.046 -0.111,-0.068c-4.194,1.977 -8.451,3.33 -12.652,3.759c-0.956,0.098 -1.898,0.147 -2.824,0.147c-5.762,0 -10.954,-1.908 -15.504,-5.645c-14.834,12.164 -50.426,42.495 -61.946,52.324c16.188,-2.503 48.608,-26.078 60.861,-35.905c0.756,-0.606 1.863,-0.487 2.471,0.272c0.607,0.757 0.486,1.863 -0.272,2.471c-1.289,1.034 -21.03,16.781 -39.929,27.36c31.106,0.175 77.409,-32.086 77.898,-32.431c0.798,-0.559 1.892,-0.365 2.449,0.429c0.558,0.793 0.366,1.889 -0.427,2.447c-0.133,0.093 -13.419,9.388 -30.436,18c-3.529,1.786 -6.948,3.407 -10.266,4.877c34.601,-8.725 80.07,-29.611 80.615,-29.862c3.188,-1.412 13.811,-5.695 17.741,-2c1.603,1.508 1.829,3.854 0.67,6.976c-2.423,6.528 -1.015,7.848 2.07,10.74c1.301,1.22 2.776,2.602 4.216,4.597c3.816,5.285 6.955,7.292 8.371,6.942c1.18,-0.294 2.177,-2.595 2.667,-6.153c1.806,-13.138 12.371,-16.015 35.518,-22.32l3.829,-1.045c1.527,-0.418 3.108,-0.854 4.743,-1.309c27.723,-7.718 60.049,-36.641 82.353,-73.685c15.447,-25.654 13.426,-62.815 11.95,-89.948c-0.576,-10.587 -1.074,-19.73 -0.395,-26.063c1.804,-16.82 12.013,-21.95 18.688,-22.555c-1.139,-2.753 -4.661,-7.443 -8.166,-11.266c-2.075,-1.296 -4.767,-2.975 -6.566,-4.091c-0.223,-0.111 -3.238,-2.602 -2.569,-3.665m-4.625,-3.031c-2.33,0 -4.218,-1.889 -4.218,-4.218c0,-2.329 1.888,-4.218 4.218,-4.218c2.33,0 4.218,1.889 4.218,4.218c0,2.329 -1.888,4.218 -4.218,4.218" style="fill:#231f20;fill-rule:nonzero;"/><path d="M335.928,37.775c1.698,2.657 3.034,5.315 3.417,7.516c6.615,3.803 10.942,6.514 13.785,8.471c-1.028,-3.663 -3.109,-8.568 -7.316,-13.263c-1.723,-0.158 -5.345,-0.722 -9.886,-2.724" style="fill:#231f20;fill-rule:nonzero;"/></g></svg>