<?xml version="1.0" encoding="UTF-8" standalone="no"?><!DOCTYPE svg PUBLIC "-//W3C//DTD SVG 1.1//EN" "http://www.w3.org/Graphics/SVG/1.1/DTD/svg11.dtd"><svg width="100%" height="100%" viewBox="0 0 211 362" version="1.1" xmlns="http://www.w3.org/2000/svg" xmlns:xlink="http://www.w3.org/1999/xlink" xml:space="preserve" xmlns:serif="http://www.serif.com/" style="fill-rule:evenodd;clip-rule:evenodd;stroke-linejoin:round;stroke-miterlimit:2;"><g><path d="M123.716,12.969l-5.013,2.124l-1.21,4.725l4.587,-1.656l1.636,-5.193Z" style="fill-rule:nonzero;"/><path d="M189.473,86.513c-5.81,-3.85 -16.654,-4.381 -27.508,-4.381c-2.486,0 -5.007,0.028 -7.521,0.057c-2.518,0.028 -5.032,0.056 -7.499,0.056c-9.545,0 -19.258,-0.402 -25.643,-3.322c-16.942,-7.747 -18.418,-16.834 -15.258,-33.063c3.209,-16.472 14.333,-18.536 15.419,-18.698c5.661,-1.108 8.309,-7.994 8.335,-8.063c0.017,-0.045 0.037,-0.094 0.057,-0.138c0.047,-0.098 4.625,-9.821 5.724,-13.721c0.316,-1.123 0.375,-1.766 0.374,-2.091c-0.138,-0.096 -0.263,-0.212 -0.37,-0.346l-2.114,-2.651c-0.024,-0.03 -0.048,-0.061 -0.069,-0.092c-0.329,0.001 -0.98,0.057 -2.09,0.366c-3.906,1.085 -13.645,5.624 -13.744,5.669c-0.053,0.025 -0.107,0.048 -0.162,0.067c-0.041,0.015 -4.519,1.643 -6.826,5.15c-0.648,0.985 -1.065,2.038 -1.243,3.129c-0.588,3.633 -2.805,8.228 -3.373,9.367c-0.662,3.34 -5.326,11.06 -6.372,12.764c-8.94,17.135 -10.263,31.122 -3.932,41.571c5.469,9.028 20.094,18.136 40.438,18.135c1.337,0 2.622,-0.05 3.82,-0.149c1.403,-0.116 2.87,-0.174 4.362,-0.174c13.598,0 31.213,5.01 37.751,16.012c3.762,6.328 3.423,13.952 -0.98,22.044c-5.185,9.532 -14.846,14.365 -28.713,14.365c-14.397,0 -30.434,-5.239 -40.016,-8.37c-2.18,-0.712 -4.062,-1.327 -5.538,-1.757c-4.67,-1.36 -21.367,-5.798 -40.166,-5.798c-23.622,0 -53.698,7.233 -62.821,41.693c-14.402,54.406 16.323,79.062 44.635,90.165c3.636,1.426 8.018,2.149 13.025,2.149c16.379,0 37.2,-7.638 53.93,-13.775c6.501,-2.385 12.641,-4.638 17.769,-6.171c3.952,-1.182 7.718,-1.781 11.193,-1.781c7.344,0 13.442,2.703 17.169,7.612c3.127,4.118 4.211,9.385 2.9,14.088c-2.098,7.529 -10.309,11.675 -23.119,11.675c-6.019,0 -12.922,-0.898 -20.514,-2.669c-3.395,-0.791 -6.784,-1.193 -10.073,-1.193c-15.659,0 -24.878,9.107 -24.969,9.199c-0.026,0.026 -0.055,0.054 -0.083,0.078c-10.66,9.499 -15.697,19.924 -14.971,30.984c1.613,24.537 30.845,44.664 31.14,44.864c1.123,0.76 2.54,1.555 3.632,2.02c-0.4,-0.39 -0.914,-0.811 -1.415,-1.123c-23.837,-16.678 -27.574,-37.606 -23.149,-51.648c4.414,-14.005 17.06,-23.055 32.217,-23.055c4.756,0 9.702,0.862 14.701,2.564c6.364,2.164 12.972,3.261 19.645,3.261c18.835,0 35.623,-9.01 40.825,-21.908c4.314,-10.699 0.233,-22.81 -11.491,-34.102c-8.379,-8.071 -16.95,-11.83 -26.974,-11.83c-11.256,0 -23.385,4.875 -36.228,10.036c-9.144,3.676 -18.6,7.476 -29.013,10.196c-5.805,1.515 -11.628,2.284 -17.311,2.284c-16.67,0 -30.793,-6.572 -38.75,-18.028c-10.773,-15.51 -7.219,-34.37 -2.341,-47.46c7.424,-19.923 23.28,-30.025 47.128,-30.025c17.718,0 35.579,5.654 45.175,8.691c1.492,0.473 2.789,0.883 3.86,1.202c9.532,2.83 23.97,6.202 38.623,6.202c21.157,-0.001 35.439,-7.041 42.451,-20.926c15.626,-30.945 1.045,-49.277 -13.939,-59.207m-76.253,-64.327l2.26,-8.825c0.136,-0.537 0.517,-0.979 1.027,-1.195l9.366,-3.969c0.636,-0.271 1.374,-0.145 1.887,0.321c0.513,0.465 0.708,1.187 0.5,1.847l-3.056,9.702c-0.166,0.529 -0.57,0.95 -1.091,1.138l-8.57,3.091c-0.196,0.072 -0.4,0.107 -0.603,0.107c-0.434,0 -0.862,-0.16 -1.194,-0.463c-0.487,-0.441 -0.69,-1.117 -0.526,-1.754m-7.563,9.308c1.735,0 3.147,1.412 3.147,3.147c0,1.736 -1.412,3.147 -3.147,3.147c-1.736,0 -3.148,-1.411 -3.148,-3.147c0,-1.735 1.412,-3.147 3.148,-3.147m-10.252,25.17c0,-1.735 1.412,-3.146 3.147,-3.146c1.736,0 3.148,1.411 3.148,3.146c0,1.735 -1.412,3.147 -3.148,3.147c-1.735,0 -3.147,-1.412 -3.147,-3.147m4.568,15.934c-1.735,0 -3.147,-1.411 -3.147,-3.146c0,-1.735 1.412,-3.147 3.147,-3.147c1.735,0 3.148,1.412 3.148,3.147c0,1.735 -1.413,3.146 -3.148,3.146m1.421,-24.864c-1.735,0 -3.147,-1.412 -3.147,-3.147c0,-1.735 1.412,-3.147 3.147,-3.147c1.735,0 3.148,1.412 3.148,3.147c0,1.735 -1.413,3.147 -3.148,3.147m7.815,35.521c-1.735,0 -3.148,-1.412 -3.148,-3.147c0,-1.735 1.413,-3.147 3.148,-3.147c1.735,0 3.147,1.412 3.147,3.147c0,1.735 -1.412,3.147 -3.147,3.147m13.498,4.973c-1.735,0 -3.148,-1.412 -3.148,-3.147c0,-1.735 1.413,-3.147 3.148,-3.147c1.735,0 3.147,1.412 3.147,3.147c0,1.735 -1.412,3.147 -3.147,3.147m15.629,2.132c-1.735,0 -3.148,-1.412 -3.148,-3.148c0,-1.735 1.413,-3.146 3.148,-3.146c1.735,0 3.147,1.411 3.147,3.146c0,1.736 -1.412,3.148 -3.147,3.148m19.892,1.42c-1.735,0 -3.148,-1.412 -3.148,-3.147c0,-1.735 1.413,-3.147 3.148,-3.147c1.735,0 3.147,1.412 3.147,3.147c0,1.735 -1.412,3.147 -3.147,3.147m19.891,3.552c-1.735,0 -3.147,-1.412 -3.147,-3.147c0,-1.735 1.412,-3.147 3.147,-3.147c1.735,0 3.148,1.412 3.148,3.147c0,1.735 -1.413,3.147 -3.148,3.147m-102.532,215.007c-1.335,0 -2.42,-1.085 -2.42,-2.418c0,-1.334 1.085,-2.419 2.42,-2.419c1.333,0 2.417,1.085 2.417,2.419c0,1.333 -1.084,2.418 -2.417,2.418m16.791,-22.023c-1.476,0 -2.676,-1.201 -2.676,-2.676c0,-1.477 1.2,-2.678 2.676,-2.678c1.476,0 2.676,1.201 2.676,2.678c0,1.475 -1.2,2.676 -2.676,2.676m24.155,-5.684c-1.475,0 -2.677,-1.2 -2.677,-2.676c0,-1.476 1.202,-2.677 2.677,-2.677c1.476,0 2.676,1.201 2.676,2.677c0,1.476 -1.2,2.676 -2.676,2.676m17.54,3.804c-1.735,0 -3.147,-1.412 -3.147,-3.147c0,-1.736 1.412,-3.148 3.147,-3.148c1.735,0 3.148,1.412 3.148,3.148c0,1.735 -1.413,3.147 -3.148,3.147m22.023,0c-1.735,0 -3.147,-1.412 -3.147,-3.147c0,-1.736 1.412,-3.148 3.147,-3.148c1.736,0 3.148,1.412 3.148,3.148c0,1.735 -1.412,3.147 -3.148,3.147m17.05,-40.395c1.736,0 3.148,1.413 3.148,3.148c0,1.735 -1.412,3.147 -3.148,3.147c-1.735,0 -3.147,-1.412 -3.147,-3.147c0,-1.735 1.412,-3.148 3.147,-3.148m0,22.023c1.736,0 3.148,1.412 3.148,3.148c0,1.735 -1.412,3.146 -3.148,3.146c-1.735,0 -3.147,-1.411 -3.147,-3.146c0,-1.736 1.412,-3.148 3.147,-3.148m-12.787,-34.81c1.735,0 3.147,1.412 3.147,3.147c0,1.735 -1.412,3.147 -3.147,3.147c-1.735,0 -3.148,-1.412 -3.148,-3.147c0,-1.735 1.413,-3.147 3.148,-3.147m-29.127,0c1.735,0 3.147,1.412 3.147,3.147c0,1.735 -1.412,3.147 -3.147,3.147c-1.735,0 -3.148,-1.412 -3.148,-3.147c0,-1.735 1.413,-3.147 3.148,-3.147m-34.1,11.366c1.735,0 3.147,1.412 3.147,3.148c0,1.735 -1.412,3.147 -3.147,3.147c-1.736,0 -3.148,-1.412 -3.148,-3.147c0,-1.736 1.412,-3.148 3.148,-3.148m-40.494,7.815c1.735,0 3.146,1.412 3.146,3.148c0,1.735 -1.411,3.146 -3.146,3.146c-1.735,0 -3.148,-1.411 -3.148,-3.146c0,-1.736 1.413,-3.148 3.148,-3.148m-45.467,-46.987c-1.735,0 -3.148,-1.412 -3.148,-3.148c0,-1.735 1.413,-3.146 3.148,-3.146c1.735,0 3.147,1.411 3.147,3.146c0,1.736 -1.412,3.148 -3.147,3.148m2.842,-24.154c-1.736,0 -3.148,-1.412 -3.148,-3.148c0,-1.735 1.412,-3.147 3.148,-3.147c1.735,0 3.146,1.412 3.146,3.147c0,1.736 -1.411,3.148 -3.146,3.148m8.83,51.555c0,1.735 -1.412,3.147 -3.147,3.147c-1.735,0 -3.148,-1.412 -3.148,-3.147c0,-1.735 1.413,-3.148 3.148,-3.148c1.735,0 3.147,1.413 3.147,3.148m2.536,-74.289c-1.735,0 -3.147,-1.412 -3.147,-3.147c0,-1.736 1.412,-3.147 3.147,-3.147c1.735,0 3.147,1.411 3.147,3.147c0,1.735 -1.412,3.147 -3.147,3.147m29.838,-12.788c-1.735,0 -3.148,-1.412 -3.148,-3.147c0,-1.735 1.413,-3.147 3.148,-3.147c1.735,0 3.147,1.412 3.147,3.147c0,1.735 -1.412,3.147 -3.147,3.147m31.258,0c-1.735,0 -3.147,-1.412 -3.147,-3.147c0,-1.735 1.412,-3.147 3.147,-3.147c1.735,0 3.148,1.412 3.148,3.147c0,1.735 -1.413,3.147 -3.148,3.147m28.417,5.683c-1.735,0 -3.148,-1.411 -3.148,-3.147c0,-1.735 1.413,-3.146 3.148,-3.146c1.735,0 3.148,1.411 3.148,3.146c0,1.736 -1.413,3.147 -3.148,3.147m30.548,7.105c-1.735,0 -3.148,-1.412 -3.148,-3.147c0,-1.736 1.413,-3.147 3.148,-3.147c1.735,0 3.148,1.411 3.148,3.147c0,1.735 -1.413,3.147 -3.148,3.147m26.996,-1.421c-1.735,0 -3.148,-1.411 -3.148,-3.147c0,-1.735 1.413,-3.147 3.148,-3.147c1.735,0 3.148,1.412 3.148,3.147c0,1.736 -1.413,3.147 -3.148,3.147m15.324,-54.297c0,-1.735 1.412,-3.148 3.147,-3.148c1.735,0 3.148,1.413 3.148,3.148c0,1.735 -1.413,3.146 -3.148,3.146c-1.735,0 -3.147,-1.411 -3.147,-3.146m4.568,39.378c-1.735,0 -3.147,-1.412 -3.147,-3.147c0,-1.735 1.412,-3.147 3.147,-3.147c1.735,0 3.147,1.412 3.147,3.147c0,1.735 -1.412,3.147 -3.147,3.147m4.262,-19.892c-1.735,0 -3.146,-1.412 -3.146,-3.147c0,-1.735 1.411,-3.147 3.146,-3.147c1.735,0 3.148,1.412 3.148,3.147c0,1.735 -1.413,3.147 -3.148,3.147" style="fill-rule:nonzero;"/></g></svg>